<svg width="24" height="39" viewBox="0 0 24 39" fill="none" xmlns="http://www.w3.org/2000/svg">
<mask id="path-1-outside-1_5_3920" maskUnits="userSpaceOnUse" x="-0.00012207" y="0" width="24" height="39" fill="black">
<rect fill="white" x="-0.00012207" width="24" height="39"/>
<path fill-rule="evenodd" clip-rule="evenodd" d="M19.4901 32.1151C19.3993 32.1151 19.3172 32.1522 19.2572 32.2118L17.8448 31.2411C17.8554 31.2084 17.8627 31.1739 17.8627 31.1376C17.8627 31.039 17.8196 30.9513 17.7523 30.8899L20.4062 25.7004C20.4438 25.7155 20.4845 25.7243 20.5276 25.7243C20.7108 25.7243 20.8593 25.5746 20.8593 25.3896C20.8593 25.3784 20.8572 25.3677 20.856 25.3565L21.8871 25.0158C21.9166 25.0583 21.9562 25.0926 22.0018 25.1173L19.5159 32.1179C19.5073 32.1172 19.4991 32.1152 19.4902 32.1152L19.4901 32.1151ZM17.0703 35.287C17.0369 35.287 17.0052 35.2935 16.9748 35.3027L16.1839 33.9658C16.2447 33.9051 16.2823 33.8211 16.2823 33.728C16.2823 33.6288 16.2387 33.5406 16.1707 33.4793L17.4255 31.4534C17.4588 31.4647 17.4938 31.4722 17.5309 31.4722C17.616 31.4722 17.6927 31.439 17.7515 31.3859L19.1715 32.3619C19.164 32.3901 19.1584 32.4193 19.1584 32.4499C19.1584 32.5267 19.185 32.5965 19.228 32.6528L17.1428 35.2957C17.1194 35.2905 17.0952 35.287 17.0703 35.287ZM13.6321 37.414C13.6165 37.4002 13.5998 37.388 13.5819 37.3775L14.5882 34.5732C14.6032 34.5753 14.618 34.5777 14.6333 34.5777C14.8166 34.5777 14.9652 34.428 14.9652 34.2431C14.9652 34.2076 14.9582 34.1743 14.948 34.142L15.6623 33.8907C15.719 33.9928 15.8261 34.0627 15.9505 34.0627C15.9797 34.0627 16.0077 34.0577 16.0347 34.0507L16.829 35.3935C16.7732 35.4533 16.7384 35.5333 16.7384 35.6218C16.7384 35.6282 16.7398 35.6342 16.7402 35.6405L13.632 37.4141L13.6321 37.414ZM7.56891 35.6549C7.59104 35.6101 7.60452 35.5603 7.60452 35.5068C7.60452 35.3918 7.54707 35.2907 7.45981 35.2303L8.01381 34.0737C8.03504 34.0781 8.05716 34.0805 8.07962 34.0805C8.19463 34.0805 8.29576 34.0215 8.35528 33.9317L9.16427 34.2401C9.16427 34.2416 9.16393 34.2428 9.16393 34.2441C9.16393 34.4172 9.29488 34.5582 9.46216 34.5754L10.5808 37.3971C10.5629 37.4127 10.5467 37.43 10.5323 37.449L7.56886 35.6548L7.56891 35.6549ZM4.97021 32.3172C4.97021 32.2587 4.95399 32.2046 4.92791 32.1567L6.18196 31.2384C6.2403 31.2904 6.31626 31.3229 6.40017 31.3229C6.43991 31.3229 6.47752 31.3147 6.51268 31.3017L7.84463 33.5094C7.78495 33.5699 7.74784 33.6535 7.74784 33.7457C7.74784 33.8456 7.79225 33.9345 7.86107 33.9958L7.29648 35.1742C7.28857 35.1738 7.28088 35.1719 7.27285 35.1719C7.19913 35.1719 7.13154 35.197 7.07654 35.238L4.86729 32.5585C4.93025 32.4975 4.97015 32.4122 4.97015 32.3172L4.97021 32.3172ZM3.95772 4.81976C4.01662 4.85113 4.08493 4.8653 4.15576 4.85563L5.9443 8.7146C5.87136 8.77588 5.82416 8.86701 5.82416 8.97035C5.82416 8.99711 5.82801 9.02286 5.83392 9.04793L3.35134 10.7792C3.30782 10.7581 3.25984 10.7453 3.20841 10.7453C3.02541 10.7453 2.8768 10.8953 2.8768 11.0801C2.8768 11.0829 2.87758 11.0856 2.87769 11.0885L1.50813 11.9439C1.48807 11.9311 1.46628 11.9207 1.44354 11.9125L1.85701 8.80343C2.02524 8.78724 2.15714 8.64596 2.15714 8.47201C2.15714 8.37126 2.11222 8.2821 2.04246 8.22065L3.95766 4.81976H3.95772ZM11.6405 1.45598C11.6774 1.55212 11.7564 1.6238 11.8517 1.65359L11.9796 6.01298C11.85 6.04773 11.7515 6.15876 11.7361 6.29802L9.86911 6.31517C9.80491 6.21903 9.69391 6.16107 9.57372 6.16871L7.98661 2.80999C8.07744 2.7382 8.12949 2.62194 8.11143 2.49853C8.11099 2.49572 8.10993 2.49313 8.10932 2.49032L11.6404 1.45598H11.6405ZM15.7371 2.56307C15.7521 2.665 15.8118 2.74804 15.8924 2.79807L14.5516 6.08354C14.5512 6.08354 14.5509 6.08343 14.5507 6.08343C14.4183 6.08337 14.3049 6.16208 14.2517 6.27503L12.3924 6.29217C12.3753 6.1577 12.2794 6.04739 12.1506 6.01248L12.0229 1.65939C12.1281 1.63504 12.2113 1.56263 12.2524 1.46784L15.7352 2.48807C15.7334 2.5127 15.7334 2.53772 15.7371 2.56307H15.7371ZM19.4636 4.46473C19.4378 4.5124 19.4218 4.56609 19.4218 4.62406C19.4218 4.7279 19.4699 4.81965 19.5434 4.8811L17.9064 8.53014C17.8911 8.52789 17.876 8.52547 17.8601 8.52547C17.784 8.52547 17.7146 8.5524 17.6587 8.59598L14.8697 6.50458C14.8772 6.47686 14.8825 6.4483 14.8825 6.41822C14.8825 6.29499 14.8157 6.1885 14.7176 6.13049L16.0572 2.84805C16.0759 2.84845 16.0946 2.84822 16.1137 2.84547C16.199 2.83271 16.271 2.78767 16.3215 2.72516L19.4635 4.46473H19.4636ZM21.8894 8.52564L20.9117 10.6746C20.8994 10.6732 20.8872 10.6709 20.8745 10.6709C20.7989 10.6709 20.7298 10.6976 20.6739 10.7406L18.1723 8.9699C18.1841 8.93538 18.192 8.89889 18.192 8.86016C18.192 8.75328 18.1413 8.65917 18.0639 8.59794L19.6991 4.95334C19.7171 4.95626 19.7351 4.95885 19.7537 4.95885C19.8145 4.95885 19.8705 4.9412 19.9195 4.91241L21.8855 8.00206C21.8097 8.0634 21.7601 8.15656 21.7601 8.26208C21.7601 8.36974 21.8112 8.46436 21.8895 8.52559L21.8894 8.52564ZM22.4903 11.984L21.1914 11.0994C21.2001 11.0695 21.2065 11.0385 21.2065 11.0055C21.2065 10.8954 21.1529 10.7984 21.0715 10.7375L22.0473 8.59238C22.0611 8.59423 22.0746 8.59648 22.0889 8.59659L22.5429 11.956C22.5244 11.9638 22.5072 11.9733 22.4904 11.984L22.4903 11.984ZM22.2105 16.6405L20.2644 15.4951C20.2811 15.445 20.2877 15.3906 20.2788 15.3348C20.2598 15.2184 20.1833 15.1265 20.0835 15.0826L20.8776 11.3401C20.965 11.3394 21.0442 11.3042 21.103 11.2474L22.3743 12.1132C22.3509 12.1592 22.3363 12.2106 22.3363 12.2658C22.3363 12.4136 22.4318 12.5376 22.5634 12.5819L22.4169 16.5503C22.337 16.5555 22.2651 16.5882 22.2104 16.6405H22.2105ZM22.0974 19.1173L20.3142 18.5175C20.3146 18.5098 20.3165 18.5023 20.3165 18.4943C20.3165 18.4598 20.3097 18.4271 20.3 18.3957L22.2112 17.126C22.2601 17.1725 22.3228 17.2033 22.3926 17.213L22.3268 18.9932C22.2339 19.0014 22.1526 19.0476 22.0973 19.1173L22.0974 19.1173ZM21.9594 22.6691L20.0572 23.1947C20.0336 23.1703 20.0059 23.1507 19.976 23.1345L22.2034 19.6209C22.2343 19.637 22.2672 19.6487 22.3026 19.6543L22.2028 22.3592C22.0659 22.3969 21.9647 22.5201 21.9594 22.6691ZM17.5643 30.8064L16.6212 27.4149C16.7495 27.3686 16.8418 27.2461 16.8418 27.1009C16.8418 27.0171 16.8102 26.9415 16.7601 26.8828L19.5839 23.6632C19.633 23.7133 19.6979 23.7468 19.77 23.7581L20.2881 25.159C20.2314 25.2191 20.1959 25.3001 20.1959 25.3898C20.1959 25.4676 20.2232 25.5383 20.2677 25.5952L17.6008 30.8106C17.5891 30.8081 17.5766 30.8075 17.5643 30.8064H17.5643ZM1.82174 19.4659L4.24843 23.1516C4.1834 23.2128 4.14199 23.2994 4.14199 23.3962C4.14199 23.4809 4.1742 23.5573 4.22563 23.6163L3.68635 25.0604C3.66918 25.0575 3.65197 25.0551 3.63402 25.0551C3.52793 25.0551 3.43459 25.1061 3.37391 25.1844L2.18188 24.816C2.185 24.7972 2.18756 24.7782 2.18756 24.7586C2.18756 24.5839 2.05449 24.4422 1.88537 24.4268L1.69486 19.5116C1.74088 19.505 1.78374 19.4895 1.82174 19.466V19.4659ZM1.74974 17.0881L3.82599 18.3644C3.81819 18.3849 3.81256 18.406 3.80883 18.4283L1.86593 18.9303C1.81249 18.8831 1.74451 18.8535 1.66917 18.8487L1.6033 17.1518C1.6578 17.1428 1.70745 17.1205 1.74969 17.0881H1.74974ZM6.15605 9.3052C6.17823 9.3052 6.19985 9.30272 6.22086 9.29851L8.03782 13.0848C7.95396 13.1456 7.89896 13.2442 7.89896 13.3562C7.89896 13.3813 7.90219 13.4059 7.90732 13.4294L4.51473 15.0884C4.45466 15.0039 4.35692 14.9484 4.24592 14.9484C4.23082 14.9484 4.21638 14.951 4.20156 14.9529L3.38539 11.3625C3.47833 11.3032 3.54041 11.1993 3.54041 11.0802C3.54041 11.0119 3.5199 10.9486 3.48518 10.8957L5.916 9.20057C5.97646 9.26477 6.06138 9.3052 6.156 9.3052H6.15605ZM11.8371 12.5278C11.7524 12.5835 11.6956 12.6772 11.6883 12.785L8.53655 13.2266C8.48645 13.106 8.36832 13.0214 8.23063 13.0214C8.21982 13.0214 8.20951 13.0237 8.19897 13.0246L6.37387 9.22115C6.44319 9.1597 6.48783 9.0707 6.48783 8.97046C6.48783 8.91671 6.47412 8.86679 6.45183 8.82176L9.33093 6.70213C9.40181 6.79642 9.51883 6.85095 9.64304 6.83234C9.64906 6.83155 9.65452 6.8293 9.66065 6.82801L11.8371 12.5278H11.8371ZM15.5668 17.9768C15.6229 18.021 15.6928 18.0484 15.7696 18.0484C15.9361 18.0484 16.0726 17.9242 16.0964 17.7628L18.041 17.8951C18.0489 18.0727 18.1932 18.2146 18.3712 18.2146C18.492 18.2146 18.5966 18.1486 18.6546 18.0514L19.6567 18.4575C19.6552 18.4697 19.6531 18.4819 19.6531 18.4944C19.6531 18.5578 19.6714 18.6164 19.7017 18.6668L18.8848 19.4898C18.8526 19.4794 18.8187 19.4722 18.7829 19.4722C18.6497 19.4722 18.5357 19.5516 18.483 19.6659H16.3507C16.3112 19.5256 16.1847 19.4223 16.033 19.4223C15.9458 19.4223 15.8668 19.4571 15.8075 19.5129L15.14 19.0789C15.1544 19.0417 15.1629 19.0018 15.1629 18.9597C15.1629 18.835 15.0945 18.7275 14.9944 18.6698L15.5668 17.9768V17.9768ZM13.5753 27.277C13.5696 27.2416 13.5571 27.2085 13.5383 27.1799L14.5983 25.999C14.6226 26.0101 14.6491 26.0163 14.6768 26.0188L15.0266 27.3644C14.9897 27.3845 14.9583 27.4132 14.9359 27.4486L13.5753 27.277ZM11.0778 27.3998C11.087 27.3736 11.093 27.3459 11.093 27.3168C11.093 27.2277 11.0463 27.1502 10.9767 27.1062L11.1668 18.7207C11.3057 18.689 11.41 18.5695 11.4223 18.423L12.777 18.4434C12.799 18.5551 12.8759 18.6466 12.9782 18.6883L13.1985 27.1079C13.1305 27.1522 13.0852 27.2291 13.0852 27.3168C13.0852 27.3277 13.0871 27.3381 13.0885 27.3485L12.2012 27.8813C12.1656 27.861 12.1249 27.8484 12.081 27.8484C12.0263 27.8484 11.9764 27.8669 11.9355 27.897L11.0779 27.3998H11.0778ZM9.08458 27.2474C9.0726 27.2148 9.05455 27.1852 9.03098 27.1608L9.39061 25.9871C9.39273 25.9872 9.39479 25.9878 9.39691 25.9878C9.4362 25.9878 9.47264 25.9778 9.50557 25.9615L10.6194 27.2176C10.6094 27.2409 10.6039 27.2662 10.6013 27.2925L9.08453 27.2474H9.08458ZM8.33082 19.5059C8.27364 19.4583 8.20115 19.4286 8.12124 19.4286C7.9719 19.4286 7.84697 19.5289 7.8054 19.6659H5.74515C5.7203 19.5058 5.58411 19.383 5.41844 19.383C5.3396 19.3829 5.26827 19.4118 5.21132 19.4581L4.41715 18.658C4.44814 18.6071 4.46692 18.5479 4.46692 18.4837C4.46692 18.4757 4.46502 18.4681 4.46446 18.4601L5.5514 18.0195C5.61208 18.0973 5.70531 18.1482 5.81107 18.1482C5.96743 18.1482 6.09754 18.0388 6.13276 17.892L8.08675 17.7591C8.13673 17.8803 8.25492 17.9655 8.393 17.9655C8.44087 17.9655 8.48623 17.9547 8.52729 17.9363L9.15201 18.6925C9.094 18.7527 9.05772 18.8348 9.05772 18.9255C9.05778 18.9596 9.06424 18.9919 9.0736 19.0228L8.33082 19.5059V19.5059ZM8.23063 13.691C8.26256 13.691 8.29264 13.685 8.32184 13.6765L9.46556 16.0565C9.42867 16.0926 9.40098 16.1376 9.38376 16.1878L4.57429 15.3174C4.57558 15.306 4.5778 15.2951 4.5778 15.2832C4.5778 15.2723 4.57569 15.2618 4.57452 15.2511L7.98734 13.5821C8.04791 13.6487 8.13406 13.691 8.23063 13.691ZM10.8064 27.0716C10.7824 27.0756 10.7598 27.0829 10.7388 27.0933L9.62421 25.8363C9.63691 25.8063 9.64393 25.7734 9.64393 25.7386C9.64393 25.6455 9.59261 25.5653 9.51772 25.5224L10.9855 19.1647L10.8064 27.0716V27.0716ZM13.1021 18.0434C12.9563 18.0434 12.8339 18.139 12.7895 18.271L11.3914 18.2499C11.3377 18.1379 11.225 18.06 11.0935 18.06C11.0655 18.06 11.0387 18.0646 11.0128 18.0712L9.93497 16.5282C9.96685 16.4947 9.9912 16.4542 10.0071 16.4095L11.8214 16.3632C11.8759 16.4725 11.987 16.5482 12.1166 16.5482C12.2429 16.5482 12.3513 16.4761 12.4074 16.3712L14.1101 16.4373C14.1107 16.4417 14.1103 16.4459 14.111 16.4505C14.117 16.4882 14.1304 16.5228 14.1476 16.5546L13.1591 18.0492C13.1403 18.0459 13.1217 18.0434 13.1022 18.0434H13.1021ZM14.4519 25.7718C14.4519 25.8101 14.4609 25.8455 14.4761 25.8779L13.3989 27.0781C13.3891 27.0752 13.3791 27.0729 13.3687 27.0713L13.1642 19.2459L14.5665 25.5621C14.4976 25.6064 14.4519 25.6834 14.4519 25.7718V25.7718ZM19.6214 15.3636L14.7169 16.2151C14.6862 16.167 14.6434 16.129 14.5942 16.1022L15.7161 13.7052C15.7238 13.7058 15.7312 13.7075 15.7389 13.7075C15.8533 13.7075 15.954 13.6493 16.0136 13.5606L19.6242 15.3434C19.6234 15.3501 19.622 15.3568 19.6214 15.3636ZM15.4084 13.386C15.4128 13.4957 15.4684 13.592 15.5528 13.6498L14.423 16.0635C14.4103 16.064 14.3973 16.0638 14.3845 16.0659C14.268 16.0852 14.1766 16.1637 14.1334 16.2655L12.4469 16.2C12.4401 16.0278 12.3049 15.8902 12.135 15.8806L12.1279 13.1222C12.212 13.0923 12.2804 13.0299 12.3178 12.9489L15.4085 13.386L15.4084 13.386ZM11.721 12.9546C11.7664 13.0479 11.8525 13.1168 11.9567 13.1365L11.9639 15.9179C11.8641 15.9705 11.7947 16.072 11.787 16.1914L10.022 16.2366C9.99376 16.0804 9.85897 15.9618 9.69609 15.9618C9.66823 15.9617 9.64148 15.9664 9.61557 15.9729L8.46945 13.5878C8.51771 13.5371 8.54914 13.4711 8.55839 13.3978L11.721 12.9546ZM1.87122 16.7425L4.02793 15.5336C4.08638 15.5855 4.16211 15.6179 4.24603 15.6179C4.35541 15.6179 4.45154 15.5639 4.51194 15.4815L9.37083 16.3607C9.40053 16.5148 9.53471 16.6313 9.6962 16.6313C9.72813 16.6313 9.75828 16.6253 9.78764 16.6168L10.8623 18.1552C10.8105 18.2063 10.7763 18.2744 10.7663 18.3504L9.65524 18.7266C9.59478 18.6446 9.49877 18.5908 9.38972 18.5908C9.35907 18.5908 9.32993 18.5962 9.3019 18.6042L8.66047 17.8275C8.70054 17.7722 8.72511 17.7046 8.72511 17.6306C8.72511 17.4457 8.57644 17.2959 8.39322 17.2959C8.22461 17.2959 8.08691 17.4232 8.06574 17.5875L6.12819 17.7192C6.08751 17.5806 5.96191 17.4788 5.81124 17.4788C5.62802 17.4788 5.47957 17.6287 5.47957 17.8134C5.47957 17.831 5.48214 17.8476 5.48459 17.8644L4.41052 18.2971C4.35101 18.2078 4.24987 18.149 4.13525 18.149C4.05624 18.149 3.98458 18.178 3.92752 18.2246L1.85623 16.9515C1.87278 16.9117 1.88197 16.8681 1.88197 16.8225C1.88197 16.7948 1.87763 16.7682 1.87139 16.7425H1.87122ZM6.40029 30.6534C6.38468 30.6534 6.36992 30.656 6.3547 30.6581L3.88065 25.6117C3.93309 25.5525 3.9658 25.4753 3.9658 25.3898C3.9658 25.2851 3.91726 25.1928 3.84265 25.1315L4.3723 23.7133C4.40445 23.7238 4.43811 23.731 4.47377 23.731C4.53986 23.731 4.60099 23.711 4.65258 23.6775L7.29548 26.8623C7.25904 26.916 7.23747 26.9809 7.23747 27.051C7.23747 27.1584 7.28868 27.2532 7.36675 27.3143L6.40981 30.6544C6.40658 30.6542 6.40352 30.6534 6.40029 30.6534V30.6534ZM7.89746 27.0146C7.87924 26.8471 7.74015 26.7163 7.56925 26.7163C7.51776 26.7163 7.4695 26.7293 7.42593 26.7505L4.76821 23.5476C4.79122 23.502 4.80555 23.4509 4.80555 23.3962C4.80555 23.2113 4.65699 23.0616 4.47377 23.0616C4.44847 23.0616 4.42401 23.0649 4.40027 23.0703L1.94143 19.3358C1.96556 19.2894 1.98049 19.2375 1.98049 19.1814C1.98049 19.1469 1.97397 19.1143 1.96428 19.0831L3.82565 18.6019C3.8733 18.7282 3.99327 18.8185 4.13508 18.8185C4.19237 18.8185 4.24547 18.8023 4.29267 18.7766L5.10913 19.5992C5.09508 19.636 5.08672 19.6758 5.08672 19.7176C5.08672 19.9025 5.23512 20.0524 5.41839 20.0524C5.55926 20.0524 5.67889 19.9635 5.72698 19.8384H7.79844C7.83243 19.987 7.9636 20.0981 8.12113 20.0981C8.30451 20.098 8.4529 19.9482 8.4529 19.7633C8.4529 19.7218 8.44444 19.6826 8.43089 19.646L9.16382 19.1694C9.223 19.2252 9.30207 19.2602 9.3895 19.2602C9.57272 19.2602 9.72127 19.1103 9.72127 18.9254C9.72127 18.9124 9.71893 18.9 9.71754 18.8875L10.7876 18.5251C10.8148 18.5901 10.8625 18.6436 10.9217 18.6799L9.34854 25.4943C9.23526 25.517 9.14978 25.6178 9.14978 25.7386C9.14978 25.8117 9.18159 25.8768 9.23108 25.9223L8.87462 27.0864C8.86754 27.0859 8.86069 27.0842 8.8535 27.0842C8.77186 27.0842 8.69998 27.1247 8.65512 27.1864L7.89729 27.0146H7.89746ZM10.7761 28.2835C10.7325 28.2121 10.6551 28.1641 10.566 28.1641C10.5069 28.1641 10.4533 28.1859 10.4107 28.2208L9.19307 27.4233L10.6497 27.4666C10.6948 27.5266 10.7657 27.566 10.846 27.566C10.8896 27.566 10.93 27.5537 10.9656 27.5337L11.8277 28.0337L10.7762 28.2835L10.7761 28.2835ZM13.7353 28.2686C13.6907 28.2246 13.63 28.1973 13.5627 28.1973C13.4776 28.1973 13.4026 28.2407 13.3582 28.3069L12.3222 28.0454C12.32 28.035 12.3164 28.0251 12.313 28.0152L13.168 27.5017C13.2118 27.5413 13.2689 27.566 13.3323 27.566C13.4215 27.566 13.4987 27.5181 13.5421 27.4468L14.8967 27.6176L13.7354 28.2686L13.7353 28.2686ZM22.0755 19.5026L19.7971 23.0961C19.6248 23.108 19.4885 23.2515 19.4885 23.4283C19.4885 23.4536 19.4917 23.4781 19.4968 23.5018L16.617 26.7854C16.5833 26.7737 16.5477 26.7661 16.51 26.7661C16.3269 26.7661 16.1784 26.916 16.1784 27.1008C16.1784 27.1049 16.1794 27.1087 16.1795 27.1129L15.3265 27.4165C15.2926 27.3786 15.248 27.3511 15.197 27.3396L14.8422 25.974C14.9047 25.9289 14.9458 25.8553 14.9458 25.7717C14.9459 25.6461 14.8534 25.5432 14.7336 25.526L13.2163 18.6912C13.2849 18.6657 13.3427 18.6188 13.3815 18.5577L14.5032 18.9213C14.5018 18.934 14.4993 18.9464 14.4993 18.9595C14.4994 19.1443 14.6479 19.2942 14.8311 19.2942C14.9102 19.2942 14.982 19.265 15.0389 19.2184L15.7175 19.6593C15.7079 19.6904 15.7013 19.7227 15.7013 19.7569C15.7013 19.9418 15.8498 20.0916 16.033 20.0916C16.1883 20.0916 16.3175 19.9836 16.3538 19.8383H18.4542C18.4702 20.0081 18.6105 20.1414 18.7829 20.1414C18.966 20.1414 19.1146 19.9916 19.1146 19.8067C19.1146 19.7219 19.0824 19.6455 19.0309 19.5865L19.8254 18.7862C19.8729 18.8126 19.9267 18.8291 19.9848 18.8291C20.0995 18.8291 20.2005 18.7705 20.2601 18.6814L22.029 19.2762C22.0267 19.2922 22.0241 19.3083 22.0241 19.325C22.0241 19.3904 22.0433 19.4508 22.0756 19.5025L22.0755 19.5026ZM22.1219 16.9788L20.2094 18.2495C20.1502 18.1943 20.0718 18.1597 19.9848 18.1597C19.8752 18.1597 19.7788 18.2139 19.7184 18.2966L18.7026 17.8846C18.7026 17.8829 18.703 17.8815 18.703 17.8798C18.703 17.6949 18.5543 17.545 18.3712 17.545C18.2422 17.545 18.1317 17.62 18.0768 17.7283L16.0771 17.5891C16.028 17.466 15.9091 17.379 15.7696 17.379C15.5865 17.379 15.4378 17.5288 15.4378 17.7138C15.4378 17.7566 15.4465 17.7973 15.4611 17.835L14.8067 18.6274C14.7079 18.6348 14.6215 18.6848 14.5658 18.7604L13.4325 18.393C13.4325 18.388 13.4339 18.3833 13.4339 18.3781C13.4339 18.2756 13.3873 18.185 13.3153 18.1236L14.2688 16.6823C14.3338 16.7215 14.4115 16.7398 14.4918 16.7266C14.6596 16.6987 14.7756 16.5485 14.768 16.3813L19.6537 15.5333C19.7158 15.6638 19.8564 15.7439 20.005 15.7192C20.0691 15.7088 20.1251 15.6797 20.1701 15.6396L22.1217 16.7879C22.1126 16.8183 22.1063 16.8497 22.1063 16.883C22.1063 16.9165 22.1127 16.9483 22.1219 16.9788ZM20.5685 10.8767C20.5521 10.9166 20.5428 10.9601 20.5428 11.0056C20.5428 11.1306 20.6115 11.2383 20.7121 11.2957L19.914 15.0576C19.9085 15.0582 19.9031 15.0577 19.8976 15.0586C19.8119 15.0729 19.7401 15.1196 19.6904 15.1838L16.0684 13.3953C16.069 13.3877 16.0707 13.3805 16.0707 13.3727C16.0707 13.2828 16.0351 13.2016 15.9779 13.1415L17.7957 9.18848C17.8165 9.19259 17.8381 9.19506 17.8602 9.19506C17.9429 9.19506 18.018 9.16324 18.076 9.1127L20.5685 10.8767ZM14.5507 6.75301C14.6417 6.75301 14.7243 6.7158 14.7843 6.6557L17.5537 8.73242C17.5376 8.77183 17.5284 8.81495 17.5284 8.86021C17.5284 8.96068 17.5732 9.04967 17.6426 9.11107L15.8301 13.0525C15.8011 13.044 15.7709 13.038 15.7388 13.038C15.6115 13.038 15.5026 13.111 15.4468 13.2171L12.3464 12.7787C12.3389 12.6903 12.2977 12.6124 12.2354 12.5573L14.4755 6.74362C14.4997 6.74925 14.5246 6.75301 14.5507 6.75301ZM12.369 6.46505L14.2218 6.44802C14.2292 6.5319 14.2662 6.60667 14.3236 6.66121L12.1295 12.3557L12.1603 6.65418C12.2543 6.62534 12.3308 6.55613 12.3689 6.46505H12.369ZM11.7624 6.47067C11.804 6.56484 11.8866 6.63681 11.9894 6.66076L11.9583 12.3651L9.81433 6.75144C9.887 6.68628 9.92873 6.59042 9.92427 6.48748L11.7624 6.47062V6.47067ZM4.43972 4.47552C4.43426 4.43831 4.42161 4.40418 4.40551 4.37247L7.50723 2.73145C7.57565 2.83585 7.6988 2.89747 7.8297 2.87881L9.41067 6.22398C9.31132 6.29111 9.25236 6.40962 9.26574 6.5364L6.33877 8.69149C6.28633 8.6563 6.22359 8.63572 6.15605 8.63572C6.1366 8.63572 6.11782 8.63837 6.09932 8.64151L4.31345 4.78822C4.40506 4.71654 4.45794 4.5996 4.43978 4.47558L4.43972 4.47552ZM1.66337 12.2265C1.66337 12.1713 1.64889 12.1199 1.62531 12.0739L2.92924 11.2595C2.98819 11.3527 3.09094 11.415 3.20846 11.415C3.21303 11.415 3.2171 11.4139 3.22156 11.4137L4.04169 15.0214C3.96463 15.0826 3.91431 15.1765 3.91431 15.2832C3.91431 15.3206 3.92178 15.356 3.93287 15.3894L1.78886 16.5911C1.7347 16.5341 1.66064 16.4976 1.57778 16.4904L1.42493 12.5461C1.56251 12.5053 1.66337 12.3785 1.66343 12.2265L1.66337 12.2265ZM4.80833 32.0311C4.75846 32.0008 4.70084 31.9824 4.63843 31.9824C4.60177 31.9824 4.56716 31.9898 4.53423 32.0009L2.00178 25.0577C2.04285 25.0372 2.07868 25.0085 2.10793 24.9736L3.30676 25.3443C3.30481 25.3595 3.30225 25.3743 3.30225 25.3899C3.30225 25.5748 3.45092 25.7245 3.63402 25.7245C3.67002 25.7245 3.70407 25.7172 3.73644 25.7067L6.19712 30.7252C6.11939 30.7864 6.06846 30.881 6.06846 30.9881C6.06846 31.0257 6.07592 31.0609 6.08718 31.0946L4.80839 32.0311H4.80833ZM13.415 37.3305C13.2648 37.3305 13.1393 37.432 13.0985 37.5701L11.1249 37.616C11.1078 37.4471 10.9682 37.315 10.7964 37.315C10.7754 37.315 10.7549 37.3175 10.7349 37.3213L9.63513 34.5472C9.74847 34.4936 9.82748 34.3787 9.82748 34.2442C9.82754 34.1899 9.81361 34.1395 9.79082 34.0941L10.4874 33.6038C10.5448 33.6519 10.6174 33.6818 10.6977 33.6818C10.8524 33.6818 10.9812 33.5746 11.0181 33.4301H12.9417C12.9727 33.5826 13.1064 33.6974 13.2668 33.6974C13.3694 33.6974 13.4599 33.6495 13.5208 33.5758L14.3476 34.0763C14.3192 34.1257 14.3017 34.182 14.3017 34.2432C14.3017 34.3506 14.3528 34.445 14.4306 34.5061L13.4169 37.3308C13.4163 37.3307 13.4157 37.3306 13.4151 37.3305H13.415ZM15.9507 33.3934C15.7692 33.3934 15.6221 33.5406 15.6195 33.723L14.8521 33.9932C14.7936 33.941 14.7177 33.9085 14.6334 33.9085C14.5754 33.9085 14.5215 33.925 14.474 33.9514L13.593 33.4182C13.5961 33.4001 13.5986 33.3818 13.5986 33.3627C13.5986 33.1779 13.45 33.028 13.2668 33.028C13.1203 33.028 12.9973 33.1245 12.9534 33.2576H11.0159C10.9769 33.1165 10.8499 33.0125 10.6977 33.0125C10.5146 33.0125 10.3659 33.1623 10.3659 33.3473C10.3659 33.3882 10.3742 33.4271 10.3878 33.4636L9.67658 33.9641C9.62459 33.9299 9.56257 33.9096 9.49576 33.9096C9.37445 33.9096 9.26947 33.9759 9.21163 34.0738L8.40938 33.7682C8.40983 33.7605 8.41161 33.7536 8.41161 33.7459C8.41161 33.5611 8.26305 33.4113 8.07978 33.4113C8.04975 33.4113 8.02122 33.4165 7.99358 33.4242L6.65305 31.2027C6.70158 31.1445 6.73212 31.0703 6.73212 30.9882C6.73212 30.8679 6.66837 30.7631 6.57381 30.704L7.52589 27.3814C7.54021 27.3833 7.55442 27.3859 7.56936 27.3859C7.70499 27.3859 7.82123 27.3035 7.8726 27.1859L8.60865 27.3527C8.61846 27.4812 8.72388 27.5828 8.85378 27.5828C8.91825 27.5828 8.97659 27.5572 9.02056 27.5162L10.3235 28.3696C10.3211 28.3839 10.3192 28.3983 10.3192 28.4134C10.3192 28.551 10.4297 28.6626 10.5662 28.6626C10.689 28.6626 10.7903 28.5717 10.8093 28.4531L11.8585 28.2039C11.8982 28.2883 11.9826 28.347 12.0812 28.347C12.1744 28.347 12.2546 28.2941 12.2967 28.217L13.3189 28.4747C13.3329 28.599 13.4362 28.6957 13.563 28.6957C13.6994 28.6957 13.8101 28.5842 13.8101 28.4467C13.8101 28.4395 13.8085 28.4326 13.8079 28.4256L14.9804 27.7684C15.0241 27.8075 15.0808 27.832 15.1438 27.832C15.2801 27.832 15.3908 27.7204 15.3908 27.5828C15.3908 27.5808 15.3902 27.5789 15.3902 27.5773L16.23 27.2783C16.2779 27.3554 16.3557 27.4115 16.4477 27.4293L17.3944 30.8335C17.2797 30.8862 17.1995 31.0022 17.1995 31.1379C17.1995 31.2226 17.2318 31.2994 17.2835 31.3584L16.0184 33.4006C15.9966 33.3961 15.9742 33.3935 15.951 33.3935L15.9507 33.3934ZM21.8265 24.8238C21.8265 24.8339 21.8285 24.8435 21.8294 24.8533L20.7963 25.1946C20.7361 25.1103 20.6386 25.055 20.5276 25.055C20.4961 25.055 20.4663 25.0608 20.4373 25.0691L19.9452 23.7381C20.0664 23.6883 20.1519 23.5685 20.1519 23.4284C20.1519 23.4012 20.1478 23.3755 20.1419 23.3504L21.9985 22.8375C22.037 22.9105 22.101 22.9671 22.1792 22.995L22.1241 24.4926C21.957 24.5102 21.8264 24.6508 21.8264 24.8239L21.8265 24.8238ZM22.9999 12.2658C22.9999 12.0964 22.8748 11.9578 22.7128 11.9355L22.2557 8.55173C22.3556 8.4941 22.4237 8.38672 22.4237 8.26214C22.4237 8.07734 22.2753 7.92752 22.0919 7.92752C22.0757 7.92752 22.0601 7.92993 22.0444 7.93229L20.0425 4.78614C20.0691 4.73785 20.0857 4.6832 20.0857 4.62411C20.0857 4.4392 19.9371 4.28932 19.7538 4.28932C19.6929 4.28932 19.6363 4.3072 19.5871 4.33627L16.3917 2.56695C16.3969 2.53406 16.3989 2.50016 16.3938 2.46542C16.3671 2.28248 16.1984 2.15615 16.0171 2.18314C15.9215 2.19742 15.8422 2.25206 15.7919 2.32689L12.278 1.29586C12.2775 1.29243 12.278 1.28929 12.2774 1.28603C12.2506 1.10303 12.082 0.976644 11.9009 1.00363C11.7542 1.0255 11.6457 1.14137 11.6231 1.28153L8.03615 2.33218C7.96449 2.24678 7.85277 2.19876 7.73497 2.21631C7.56373 2.24177 7.44409 2.39542 7.4539 2.56656L4.2857 4.24114C4.22123 4.20094 4.14378 4.18121 4.06315 4.19318C3.88188 4.22017 3.75667 4.39046 3.78336 4.57329C3.7901 4.6195 3.80604 4.66201 3.82889 4.69945L1.88922 8.14374C1.8686 8.13963 1.84743 8.13727 1.82558 8.13727C1.64237 8.13727 1.49392 8.28716 1.49392 8.47207C1.49392 8.60728 1.57371 8.72298 1.68817 8.77588L1.27309 11.8977C1.1179 11.9257 0.999878 12.0618 0.999878 12.2265C0.999878 12.3842 1.10843 12.5156 1.25409 12.551L1.40772 16.5213C1.29605 16.5751 1.21815 16.6891 1.21815 16.8225C1.21815 16.9651 1.30708 17.0861 1.43156 17.1342L1.49927 18.8842C1.39161 18.9394 1.31705 19.0512 1.31705 19.1815C1.31705 19.3212 1.4022 19.4408 1.52278 19.4909L1.71531 24.4563C1.60269 24.5097 1.52401 24.6245 1.52401 24.7585C1.52401 24.9349 1.65981 25.0781 1.8316 25.0907L4.38807 32.0997C4.33803 32.1583 4.3066 32.2337 4.3066 32.3173C4.3066 32.5019 4.45527 32.652 4.63849 32.652C4.66451 32.652 4.68964 32.648 4.71399 32.6423L6.9676 35.3759C6.95061 35.416 6.94119 35.4602 6.94119 35.5069C6.94119 35.6915 7.08975 35.8415 7.27297 35.8415C7.33972 35.8415 7.4018 35.8212 7.45401 35.7868L10.4685 37.6119C10.4671 37.6245 10.4648 37.6368 10.4648 37.6498C10.4648 37.8345 10.6135 37.9845 10.7965 37.9845C10.9304 37.9845 11.0448 37.9043 11.0973 37.7893L13.0931 37.743C13.1279 37.8901 13.2584 38 13.4151 38C13.5983 38 13.7469 37.8502 13.7469 37.6653C13.7469 37.6275 13.7392 37.5919 13.7277 37.5581L16.7946 35.8078C16.8542 35.8976 16.9554 35.9567 17.0705 35.9567C17.2536 35.9567 17.4022 35.8067 17.4022 35.6218C17.4022 35.5255 17.3611 35.4393 17.2965 35.3783L19.3633 32.7591C19.4024 32.7755 19.4454 32.7847 19.4902 32.7847C19.6736 32.7847 19.8222 32.6349 19.8222 32.45C19.8222 32.3353 19.7648 32.2344 19.6778 32.174L22.1694 25.1573C22.3474 25.1512 22.4901 25.0048 22.4901 24.8238C22.4901 24.688 22.4095 24.5714 22.2942 24.5191L22.3499 23.0094C22.5044 22.9809 22.6217 22.8449 22.6217 22.6807C22.6217 22.5253 22.5163 22.396 22.3739 22.3581L22.4745 19.6367C22.5989 19.5885 22.6876 19.4676 22.6876 19.325C22.6876 19.1913 22.6094 19.0768 22.497 19.0232L22.5646 17.1922C22.6849 17.142 22.7699 17.0226 22.7699 16.883C22.7699 16.7524 22.6949 16.6404 22.587 16.5854L22.7342 12.5937C22.8859 12.5628 22.9999 12.4277 22.9999 12.2658V12.2658Z"/>
</mask>
<path fill-rule="evenodd" clip-rule="evenodd" d="M19.4901 32.1151C19.3993 32.1151 19.3172 32.1522 19.2572 32.2118L17.8448 31.2411C17.8554 31.2084 17.8627 31.1739 17.8627 31.1376C17.8627 31.039 17.8196 30.9513 17.7523 30.8899L20.4062 25.7004C20.4438 25.7155 20.4845 25.7243 20.5276 25.7243C20.7108 25.7243 20.8593 25.5746 20.8593 25.3896C20.8593 25.3784 20.8572 25.3677 20.856 25.3565L21.8871 25.0158C21.9166 25.0583 21.9562 25.0926 22.0018 25.1173L19.5159 32.1179C19.5073 32.1172 19.4991 32.1152 19.4902 32.1152L19.4901 32.1151ZM17.0703 35.287C17.0369 35.287 17.0052 35.2935 16.9748 35.3027L16.1839 33.9658C16.2447 33.9051 16.2823 33.8211 16.2823 33.728C16.2823 33.6288 16.2387 33.5406 16.1707 33.4793L17.4255 31.4534C17.4588 31.4647 17.4938 31.4722 17.5309 31.4722C17.616 31.4722 17.6927 31.439 17.7515 31.3859L19.1715 32.3619C19.164 32.3901 19.1584 32.4193 19.1584 32.4499C19.1584 32.5267 19.185 32.5965 19.228 32.6528L17.1428 35.2957C17.1194 35.2905 17.0952 35.287 17.0703 35.287ZM13.6321 37.414C13.6165 37.4002 13.5998 37.388 13.5819 37.3775L14.5882 34.5732C14.6032 34.5753 14.618 34.5777 14.6333 34.5777C14.8166 34.5777 14.9652 34.428 14.9652 34.2431C14.9652 34.2076 14.9582 34.1743 14.948 34.142L15.6623 33.8907C15.719 33.9928 15.8261 34.0627 15.9505 34.0627C15.9797 34.0627 16.0077 34.0577 16.0347 34.0507L16.829 35.3935C16.7732 35.4533 16.7384 35.5333 16.7384 35.6218C16.7384 35.6282 16.7398 35.6342 16.7402 35.6405L13.632 37.4141L13.6321 37.414ZM7.56891 35.6549C7.59104 35.6101 7.60452 35.5603 7.60452 35.5068C7.60452 35.3918 7.54707 35.2907 7.45981 35.2303L8.01381 34.0737C8.03504 34.0781 8.05716 34.0805 8.07962 34.0805C8.19463 34.0805 8.29576 34.0215 8.35528 33.9317L9.16427 34.2401C9.16427 34.2416 9.16393 34.2428 9.16393 34.2441C9.16393 34.4172 9.29488 34.5582 9.46216 34.5754L10.5808 37.3971C10.5629 37.4127 10.5467 37.43 10.5323 37.449L7.56886 35.6548L7.56891 35.6549ZM4.97021 32.3172C4.97021 32.2587 4.95399 32.2046 4.92791 32.1567L6.18196 31.2384C6.2403 31.2904 6.31626 31.3229 6.40017 31.3229C6.43991 31.3229 6.47752 31.3147 6.51268 31.3017L7.84463 33.5094C7.78495 33.5699 7.74784 33.6535 7.74784 33.7457C7.74784 33.8456 7.79225 33.9345 7.86107 33.9958L7.29648 35.1742C7.28857 35.1738 7.28088 35.1719 7.27285 35.1719C7.19913 35.1719 7.13154 35.197 7.07654 35.238L4.86729 32.5585C4.93025 32.4975 4.97015 32.4122 4.97015 32.3172L4.97021 32.3172ZM3.95772 4.81976C4.01662 4.85113 4.08493 4.8653 4.15576 4.85563L5.9443 8.7146C5.87136 8.77588 5.82416 8.86701 5.82416 8.97035C5.82416 8.99711 5.82801 9.02286 5.83392 9.04793L3.35134 10.7792C3.30782 10.7581 3.25984 10.7453 3.20841 10.7453C3.02541 10.7453 2.8768 10.8953 2.8768 11.0801C2.8768 11.0829 2.87758 11.0856 2.87769 11.0885L1.50813 11.9439C1.48807 11.9311 1.46628 11.9207 1.44354 11.9125L1.85701 8.80343C2.02524 8.78724 2.15714 8.64596 2.15714 8.47201C2.15714 8.37126 2.11222 8.2821 2.04246 8.22065L3.95766 4.81976H3.95772ZM11.6405 1.45598C11.6774 1.55212 11.7564 1.6238 11.8517 1.65359L11.9796 6.01298C11.85 6.04773 11.7515 6.15876 11.7361 6.29802L9.86911 6.31517C9.80491 6.21903 9.69391 6.16107 9.57372 6.16871L7.98661 2.80999C8.07744 2.7382 8.12949 2.62194 8.11143 2.49853C8.11099 2.49572 8.10993 2.49313 8.10932 2.49032L11.6404 1.45598H11.6405ZM15.7371 2.56307C15.7521 2.665 15.8118 2.74804 15.8924 2.79807L14.5516 6.08354C14.5512 6.08354 14.5509 6.08343 14.5507 6.08343C14.4183 6.08337 14.3049 6.16208 14.2517 6.27503L12.3924 6.29217C12.3753 6.1577 12.2794 6.04739 12.1506 6.01248L12.0229 1.65939C12.1281 1.63504 12.2113 1.56263 12.2524 1.46784L15.7352 2.48807C15.7334 2.5127 15.7334 2.53772 15.7371 2.56307H15.7371ZM19.4636 4.46473C19.4378 4.5124 19.4218 4.56609 19.4218 4.62406C19.4218 4.7279 19.4699 4.81965 19.5434 4.8811L17.9064 8.53014C17.8911 8.52789 17.876 8.52547 17.8601 8.52547C17.784 8.52547 17.7146 8.5524 17.6587 8.59598L14.8697 6.50458C14.8772 6.47686 14.8825 6.4483 14.8825 6.41822C14.8825 6.29499 14.8157 6.1885 14.7176 6.13049L16.0572 2.84805C16.0759 2.84845 16.0946 2.84822 16.1137 2.84547C16.199 2.83271 16.271 2.78767 16.3215 2.72516L19.4635 4.46473H19.4636ZM21.8894 8.52564L20.9117 10.6746C20.8994 10.6732 20.8872 10.6709 20.8745 10.6709C20.7989 10.6709 20.7298 10.6976 20.6739 10.7406L18.1723 8.9699C18.1841 8.93538 18.192 8.89889 18.192 8.86016C18.192 8.75328 18.1413 8.65917 18.0639 8.59794L19.6991 4.95334C19.7171 4.95626 19.7351 4.95885 19.7537 4.95885C19.8145 4.95885 19.8705 4.9412 19.9195 4.91241L21.8855 8.00206C21.8097 8.0634 21.7601 8.15656 21.7601 8.26208C21.7601 8.36974 21.8112 8.46436 21.8895 8.52559L21.8894 8.52564ZM22.4903 11.984L21.1914 11.0994C21.2001 11.0695 21.2065 11.0385 21.2065 11.0055C21.2065 10.8954 21.1529 10.7984 21.0715 10.7375L22.0473 8.59238C22.0611 8.59423 22.0746 8.59648 22.0889 8.59659L22.5429 11.956C22.5244 11.9638 22.5072 11.9733 22.4904 11.984L22.4903 11.984ZM22.2105 16.6405L20.2644 15.4951C20.2811 15.445 20.2877 15.3906 20.2788 15.3348C20.2598 15.2184 20.1833 15.1265 20.0835 15.0826L20.8776 11.3401C20.965 11.3394 21.0442 11.3042 21.103 11.2474L22.3743 12.1132C22.3509 12.1592 22.3363 12.2106 22.3363 12.2658C22.3363 12.4136 22.4318 12.5376 22.5634 12.5819L22.4169 16.5503C22.337 16.5555 22.2651 16.5882 22.2104 16.6405H22.2105ZM22.0974 19.1173L20.3142 18.5175C20.3146 18.5098 20.3165 18.5023 20.3165 18.4943C20.3165 18.4598 20.3097 18.4271 20.3 18.3957L22.2112 17.126C22.2601 17.1725 22.3228 17.2033 22.3926 17.213L22.3268 18.9932C22.2339 19.0014 22.1526 19.0476 22.0973 19.1173L22.0974 19.1173ZM21.9594 22.6691L20.0572 23.1947C20.0336 23.1703 20.0059 23.1507 19.976 23.1345L22.2034 19.6209C22.2343 19.637 22.2672 19.6487 22.3026 19.6543L22.2028 22.3592C22.0659 22.3969 21.9647 22.5201 21.9594 22.6691ZM17.5643 30.8064L16.6212 27.4149C16.7495 27.3686 16.8418 27.2461 16.8418 27.1009C16.8418 27.0171 16.8102 26.9415 16.7601 26.8828L19.5839 23.6632C19.633 23.7133 19.6979 23.7468 19.77 23.7581L20.2881 25.159C20.2314 25.2191 20.1959 25.3001 20.1959 25.3898C20.1959 25.4676 20.2232 25.5383 20.2677 25.5952L17.6008 30.8106C17.5891 30.8081 17.5766 30.8075 17.5643 30.8064H17.5643ZM1.82174 19.4659L4.24843 23.1516C4.1834 23.2128 4.14199 23.2994 4.14199 23.3962C4.14199 23.4809 4.1742 23.5573 4.22563 23.6163L3.68635 25.0604C3.66918 25.0575 3.65197 25.0551 3.63402 25.0551C3.52793 25.0551 3.43459 25.1061 3.37391 25.1844L2.18188 24.816C2.185 24.7972 2.18756 24.7782 2.18756 24.7586C2.18756 24.5839 2.05449 24.4422 1.88537 24.4268L1.69486 19.5116C1.74088 19.505 1.78374 19.4895 1.82174 19.466V19.4659ZM1.74974 17.0881L3.82599 18.3644C3.81819 18.3849 3.81256 18.406 3.80883 18.4283L1.86593 18.9303C1.81249 18.8831 1.74451 18.8535 1.66917 18.8487L1.6033 17.1518C1.6578 17.1428 1.70745 17.1205 1.74969 17.0881H1.74974ZM6.15605 9.3052C6.17823 9.3052 6.19985 9.30272 6.22086 9.29851L8.03782 13.0848C7.95396 13.1456 7.89896 13.2442 7.89896 13.3562C7.89896 13.3813 7.90219 13.4059 7.90732 13.4294L4.51473 15.0884C4.45466 15.0039 4.35692 14.9484 4.24592 14.9484C4.23082 14.9484 4.21638 14.951 4.20156 14.9529L3.38539 11.3625C3.47833 11.3032 3.54041 11.1993 3.54041 11.0802C3.54041 11.0119 3.5199 10.9486 3.48518 10.8957L5.916 9.20057C5.97646 9.26477 6.06138 9.3052 6.156 9.3052H6.15605ZM11.8371 12.5278C11.7524 12.5835 11.6956 12.6772 11.6883 12.785L8.53655 13.2266C8.48645 13.106 8.36832 13.0214 8.23063 13.0214C8.21982 13.0214 8.20951 13.0237 8.19897 13.0246L6.37387 9.22115C6.44319 9.1597 6.48783 9.0707 6.48783 8.97046C6.48783 8.91671 6.47412 8.86679 6.45183 8.82176L9.33093 6.70213C9.40181 6.79642 9.51883 6.85095 9.64304 6.83234C9.64906 6.83155 9.65452 6.8293 9.66065 6.82801L11.8371 12.5278H11.8371ZM15.5668 17.9768C15.6229 18.021 15.6928 18.0484 15.7696 18.0484C15.9361 18.0484 16.0726 17.9242 16.0964 17.7628L18.041 17.8951C18.0489 18.0727 18.1932 18.2146 18.3712 18.2146C18.492 18.2146 18.5966 18.1486 18.6546 18.0514L19.6567 18.4575C19.6552 18.4697 19.6531 18.4819 19.6531 18.4944C19.6531 18.5578 19.6714 18.6164 19.7017 18.6668L18.8848 19.4898C18.8526 19.4794 18.8187 19.4722 18.7829 19.4722C18.6497 19.4722 18.5357 19.5516 18.483 19.6659H16.3507C16.3112 19.5256 16.1847 19.4223 16.033 19.4223C15.9458 19.4223 15.8668 19.4571 15.8075 19.5129L15.14 19.0789C15.1544 19.0417 15.1629 19.0018 15.1629 18.9597C15.1629 18.835 15.0945 18.7275 14.9944 18.6698L15.5668 17.9768V17.9768ZM13.5753 27.277C13.5696 27.2416 13.5571 27.2085 13.5383 27.1799L14.5983 25.999C14.6226 26.0101 14.6491 26.0163 14.6768 26.0188L15.0266 27.3644C14.9897 27.3845 14.9583 27.4132 14.9359 27.4486L13.5753 27.277ZM11.0778 27.3998C11.087 27.3736 11.093 27.3459 11.093 27.3168C11.093 27.2277 11.0463 27.1502 10.9767 27.1062L11.1668 18.7207C11.3057 18.689 11.41 18.5695 11.4223 18.423L12.777 18.4434C12.799 18.5551 12.8759 18.6466 12.9782 18.6883L13.1985 27.1079C13.1305 27.1522 13.0852 27.2291 13.0852 27.3168C13.0852 27.3277 13.0871 27.3381 13.0885 27.3485L12.2012 27.8813C12.1656 27.861 12.1249 27.8484 12.081 27.8484C12.0263 27.8484 11.9764 27.8669 11.9355 27.897L11.0779 27.3998H11.0778ZM9.08458 27.2474C9.0726 27.2148 9.05455 27.1852 9.03098 27.1608L9.39061 25.9871C9.39273 25.9872 9.39479 25.9878 9.39691 25.9878C9.4362 25.9878 9.47264 25.9778 9.50557 25.9615L10.6194 27.2176C10.6094 27.2409 10.6039 27.2662 10.6013 27.2925L9.08453 27.2474H9.08458ZM8.33082 19.5059C8.27364 19.4583 8.20115 19.4286 8.12124 19.4286C7.9719 19.4286 7.84697 19.5289 7.8054 19.6659H5.74515C5.7203 19.5058 5.58411 19.383 5.41844 19.383C5.3396 19.3829 5.26827 19.4118 5.21132 19.4581L4.41715 18.658C4.44814 18.6071 4.46692 18.5479 4.46692 18.4837C4.46692 18.4757 4.46502 18.4681 4.46446 18.4601L5.5514 18.0195C5.61208 18.0973 5.70531 18.1482 5.81107 18.1482C5.96743 18.1482 6.09754 18.0388 6.13276 17.892L8.08675 17.7591C8.13673 17.8803 8.25492 17.9655 8.393 17.9655C8.44087 17.9655 8.48623 17.9547 8.52729 17.9363L9.15201 18.6925C9.094 18.7527 9.05772 18.8348 9.05772 18.9255C9.05778 18.9596 9.06424 18.9919 9.0736 19.0228L8.33082 19.5059V19.5059ZM8.23063 13.691C8.26256 13.691 8.29264 13.685 8.32184 13.6765L9.46556 16.0565C9.42867 16.0926 9.40098 16.1376 9.38376 16.1878L4.57429 15.3174C4.57558 15.306 4.5778 15.2951 4.5778 15.2832C4.5778 15.2723 4.57569 15.2618 4.57452 15.2511L7.98734 13.5821C8.04791 13.6487 8.13406 13.691 8.23063 13.691ZM10.8064 27.0716C10.7824 27.0756 10.7598 27.0829 10.7388 27.0933L9.62421 25.8363C9.63691 25.8063 9.64393 25.7734 9.64393 25.7386C9.64393 25.6455 9.59261 25.5653 9.51772 25.5224L10.9855 19.1647L10.8064 27.0716V27.0716ZM13.1021 18.0434C12.9563 18.0434 12.8339 18.139 12.7895 18.271L11.3914 18.2499C11.3377 18.1379 11.225 18.06 11.0935 18.06C11.0655 18.06 11.0387 18.0646 11.0128 18.0712L9.93497 16.5282C9.96685 16.4947 9.9912 16.4542 10.0071 16.4095L11.8214 16.3632C11.8759 16.4725 11.987 16.5482 12.1166 16.5482C12.2429 16.5482 12.3513 16.4761 12.4074 16.3712L14.1101 16.4373C14.1107 16.4417 14.1103 16.4459 14.111 16.4505C14.117 16.4882 14.1304 16.5228 14.1476 16.5546L13.1591 18.0492C13.1403 18.0459 13.1217 18.0434 13.1022 18.0434H13.1021ZM14.4519 25.7718C14.4519 25.8101 14.4609 25.8455 14.4761 25.8779L13.3989 27.0781C13.3891 27.0752 13.3791 27.0729 13.3687 27.0713L13.1642 19.2459L14.5665 25.5621C14.4976 25.6064 14.4519 25.6834 14.4519 25.7718V25.7718ZM19.6214 15.3636L14.7169 16.2151C14.6862 16.167 14.6434 16.129 14.5942 16.1022L15.7161 13.7052C15.7238 13.7058 15.7312 13.7075 15.7389 13.7075C15.8533 13.7075 15.954 13.6493 16.0136 13.5606L19.6242 15.3434C19.6234 15.3501 19.622 15.3568 19.6214 15.3636ZM15.4084 13.386C15.4128 13.4957 15.4684 13.592 15.5528 13.6498L14.423 16.0635C14.4103 16.064 14.3973 16.0638 14.3845 16.0659C14.268 16.0852 14.1766 16.1637 14.1334 16.2655L12.4469 16.2C12.4401 16.0278 12.3049 15.8902 12.135 15.8806L12.1279 13.1222C12.212 13.0923 12.2804 13.0299 12.3178 12.9489L15.4085 13.386L15.4084 13.386ZM11.721 12.9546C11.7664 13.0479 11.8525 13.1168 11.9567 13.1365L11.9639 15.9179C11.8641 15.9705 11.7947 16.072 11.787 16.1914L10.022 16.2366C9.99376 16.0804 9.85897 15.9618 9.69609 15.9618C9.66823 15.9617 9.64148 15.9664 9.61557 15.9729L8.46945 13.5878C8.51771 13.5371 8.54914 13.4711 8.55839 13.3978L11.721 12.9546ZM1.87122 16.7425L4.02793 15.5336C4.08638 15.5855 4.16211 15.6179 4.24603 15.6179C4.35541 15.6179 4.45154 15.5639 4.51194 15.4815L9.37083 16.3607C9.40053 16.5148 9.53471 16.6313 9.6962 16.6313C9.72813 16.6313 9.75828 16.6253 9.78764 16.6168L10.8623 18.1552C10.8105 18.2063 10.7763 18.2744 10.7663 18.3504L9.65524 18.7266C9.59478 18.6446 9.49877 18.5908 9.38972 18.5908C9.35907 18.5908 9.32993 18.5962 9.3019 18.6042L8.66047 17.8275C8.70054 17.7722 8.72511 17.7046 8.72511 17.6306C8.72511 17.4457 8.57644 17.2959 8.39322 17.2959C8.22461 17.2959 8.08691 17.4232 8.06574 17.5875L6.12819 17.7192C6.08751 17.5806 5.96191 17.4788 5.81124 17.4788C5.62802 17.4788 5.47957 17.6287 5.47957 17.8134C5.47957 17.831 5.48214 17.8476 5.48459 17.8644L4.41052 18.2971C4.35101 18.2078 4.24987 18.149 4.13525 18.149C4.05624 18.149 3.98458 18.178 3.92752 18.2246L1.85623 16.9515C1.87278 16.9117 1.88197 16.8681 1.88197 16.8225C1.88197 16.7948 1.87763 16.7682 1.87139 16.7425H1.87122ZM6.40029 30.6534C6.38468 30.6534 6.36992 30.656 6.3547 30.6581L3.88065 25.6117C3.93309 25.5525 3.9658 25.4753 3.9658 25.3898C3.9658 25.2851 3.91726 25.1928 3.84265 25.1315L4.3723 23.7133C4.40445 23.7238 4.43811 23.731 4.47377 23.731C4.53986 23.731 4.60099 23.711 4.65258 23.6775L7.29548 26.8623C7.25904 26.916 7.23747 26.9809 7.23747 27.051C7.23747 27.1584 7.28868 27.2532 7.36675 27.3143L6.40981 30.6544C6.40658 30.6542 6.40352 30.6534 6.40029 30.6534V30.6534ZM7.89746 27.0146C7.87924 26.8471 7.74015 26.7163 7.56925 26.7163C7.51776 26.7163 7.4695 26.7293 7.42593 26.7505L4.76821 23.5476C4.79122 23.502 4.80555 23.4509 4.80555 23.3962C4.80555 23.2113 4.65699 23.0616 4.47377 23.0616C4.44847 23.0616 4.42401 23.0649 4.40027 23.0703L1.94143 19.3358C1.96556 19.2894 1.98049 19.2375 1.98049 19.1814C1.98049 19.1469 1.97397 19.1143 1.96428 19.0831L3.82565 18.6019C3.8733 18.7282 3.99327 18.8185 4.13508 18.8185C4.19237 18.8185 4.24547 18.8023 4.29267 18.7766L5.10913 19.5992C5.09508 19.636 5.08672 19.6758 5.08672 19.7176C5.08672 19.9025 5.23512 20.0524 5.41839 20.0524C5.55926 20.0524 5.67889 19.9635 5.72698 19.8384H7.79844C7.83243 19.987 7.9636 20.0981 8.12113 20.0981C8.30451 20.098 8.4529 19.9482 8.4529 19.7633C8.4529 19.7218 8.44444 19.6826 8.43089 19.646L9.16382 19.1694C9.223 19.2252 9.30207 19.2602 9.3895 19.2602C9.57272 19.2602 9.72127 19.1103 9.72127 18.9254C9.72127 18.9124 9.71893 18.9 9.71754 18.8875L10.7876 18.5251C10.8148 18.5901 10.8625 18.6436 10.9217 18.6799L9.34854 25.4943C9.23526 25.517 9.14978 25.6178 9.14978 25.7386C9.14978 25.8117 9.18159 25.8768 9.23108 25.9223L8.87462 27.0864C8.86754 27.0859 8.86069 27.0842 8.8535 27.0842C8.77186 27.0842 8.69998 27.1247 8.65512 27.1864L7.89729 27.0146H7.89746ZM10.7761 28.2835C10.7325 28.2121 10.6551 28.1641 10.566 28.1641C10.5069 28.1641 10.4533 28.1859 10.4107 28.2208L9.19307 27.4233L10.6497 27.4666C10.6948 27.5266 10.7657 27.566 10.846 27.566C10.8896 27.566 10.93 27.5537 10.9656 27.5337L11.8277 28.0337L10.7762 28.2835L10.7761 28.2835ZM13.7353 28.2686C13.6907 28.2246 13.63 28.1973 13.5627 28.1973C13.4776 28.1973 13.4026 28.2407 13.3582 28.3069L12.3222 28.0454C12.32 28.035 12.3164 28.0251 12.313 28.0152L13.168 27.5017C13.2118 27.5413 13.2689 27.566 13.3323 27.566C13.4215 27.566 13.4987 27.5181 13.5421 27.4468L14.8967 27.6176L13.7354 28.2686L13.7353 28.2686ZM22.0755 19.5026L19.7971 23.0961C19.6248 23.108 19.4885 23.2515 19.4885 23.4283C19.4885 23.4536 19.4917 23.4781 19.4968 23.5018L16.617 26.7854C16.5833 26.7737 16.5477 26.7661 16.51 26.7661C16.3269 26.7661 16.1784 26.916 16.1784 27.1008C16.1784 27.1049 16.1794 27.1087 16.1795 27.1129L15.3265 27.4165C15.2926 27.3786 15.248 27.3511 15.197 27.3396L14.8422 25.974C14.9047 25.9289 14.9458 25.8553 14.9458 25.7717C14.9459 25.6461 14.8534 25.5432 14.7336 25.526L13.2163 18.6912C13.2849 18.6657 13.3427 18.6188 13.3815 18.5577L14.5032 18.9213C14.5018 18.934 14.4993 18.9464 14.4993 18.9595C14.4994 19.1443 14.6479 19.2942 14.8311 19.2942C14.9102 19.2942 14.982 19.265 15.0389 19.2184L15.7175 19.6593C15.7079 19.6904 15.7013 19.7227 15.7013 19.7569C15.7013 19.9418 15.8498 20.0916 16.033 20.0916C16.1883 20.0916 16.3175 19.9836 16.3538 19.8383H18.4542C18.4702 20.0081 18.6105 20.1414 18.7829 20.1414C18.966 20.1414 19.1146 19.9916 19.1146 19.8067C19.1146 19.7219 19.0824 19.6455 19.0309 19.5865L19.8254 18.7862C19.8729 18.8126 19.9267 18.8291 19.9848 18.8291C20.0995 18.8291 20.2005 18.7705 20.2601 18.6814L22.029 19.2762C22.0267 19.2922 22.0241 19.3083 22.0241 19.325C22.0241 19.3904 22.0433 19.4508 22.0756 19.5025L22.0755 19.5026ZM22.1219 16.9788L20.2094 18.2495C20.1502 18.1943 20.0718 18.1597 19.9848 18.1597C19.8752 18.1597 19.7788 18.2139 19.7184 18.2966L18.7026 17.8846C18.7026 17.8829 18.703 17.8815 18.703 17.8798C18.703 17.6949 18.5543 17.545 18.3712 17.545C18.2422 17.545 18.1317 17.62 18.0768 17.7283L16.0771 17.5891C16.028 17.466 15.9091 17.379 15.7696 17.379C15.5865 17.379 15.4378 17.5288 15.4378 17.7138C15.4378 17.7566 15.4465 17.7973 15.4611 17.835L14.8067 18.6274C14.7079 18.6348 14.6215 18.6848 14.5658 18.7604L13.4325 18.393C13.4325 18.388 13.4339 18.3833 13.4339 18.3781C13.4339 18.2756 13.3873 18.185 13.3153 18.1236L14.2688 16.6823C14.3338 16.7215 14.4115 16.7398 14.4918 16.7266C14.6596 16.6987 14.7756 16.5485 14.768 16.3813L19.6537 15.5333C19.7158 15.6638 19.8564 15.7439 20.005 15.7192C20.0691 15.7088 20.1251 15.6797 20.1701 15.6396L22.1217 16.7879C22.1126 16.8183 22.1063 16.8497 22.1063 16.883C22.1063 16.9165 22.1127 16.9483 22.1219 16.9788ZM20.5685 10.8767C20.5521 10.9166 20.5428 10.9601 20.5428 11.0056C20.5428 11.1306 20.6115 11.2383 20.7121 11.2957L19.914 15.0576C19.9085 15.0582 19.9031 15.0577 19.8976 15.0586C19.8119 15.0729 19.7401 15.1196 19.6904 15.1838L16.0684 13.3953C16.069 13.3877 16.0707 13.3805 16.0707 13.3727C16.0707 13.2828 16.0351 13.2016 15.9779 13.1415L17.7957 9.18848C17.8165 9.19259 17.8381 9.19506 17.8602 9.19506C17.9429 9.19506 18.018 9.16324 18.076 9.1127L20.5685 10.8767ZM14.5507 6.75301C14.6417 6.75301 14.7243 6.7158 14.7843 6.6557L17.5537 8.73242C17.5376 8.77183 17.5284 8.81495 17.5284 8.86021C17.5284 8.96068 17.5732 9.04967 17.6426 9.11107L15.8301 13.0525C15.8011 13.044 15.7709 13.038 15.7388 13.038C15.6115 13.038 15.5026 13.111 15.4468 13.2171L12.3464 12.7787C12.3389 12.6903 12.2977 12.6124 12.2354 12.5573L14.4755 6.74362C14.4997 6.74925 14.5246 6.75301 14.5507 6.75301ZM12.369 6.46505L14.2218 6.44802C14.2292 6.5319 14.2662 6.60667 14.3236 6.66121L12.1295 12.3557L12.1603 6.65418C12.2543 6.62534 12.3308 6.55613 12.3689 6.46505H12.369ZM11.7624 6.47067C11.804 6.56484 11.8866 6.63681 11.9894 6.66076L11.9583 12.3651L9.81433 6.75144C9.887 6.68628 9.92873 6.59042 9.92427 6.48748L11.7624 6.47062V6.47067ZM4.43972 4.47552C4.43426 4.43831 4.42161 4.40418 4.40551 4.37247L7.50723 2.73145C7.57565 2.83585 7.6988 2.89747 7.8297 2.87881L9.41067 6.22398C9.31132 6.29111 9.25236 6.40962 9.26574 6.5364L6.33877 8.69149C6.28633 8.6563 6.22359 8.63572 6.15605 8.63572C6.1366 8.63572 6.11782 8.63837 6.09932 8.64151L4.31345 4.78822C4.40506 4.71654 4.45794 4.5996 4.43978 4.47558L4.43972 4.47552ZM1.66337 12.2265C1.66337 12.1713 1.64889 12.1199 1.62531 12.0739L2.92924 11.2595C2.98819 11.3527 3.09094 11.415 3.20846 11.415C3.21303 11.415 3.2171 11.4139 3.22156 11.4137L4.04169 15.0214C3.96463 15.0826 3.91431 15.1765 3.91431 15.2832C3.91431 15.3206 3.92178 15.356 3.93287 15.3894L1.78886 16.5911C1.7347 16.5341 1.66064 16.4976 1.57778 16.4904L1.42493 12.5461C1.56251 12.5053 1.66337 12.3785 1.66343 12.2265L1.66337 12.2265ZM4.80833 32.0311C4.75846 32.0008 4.70084 31.9824 4.63843 31.9824C4.60177 31.9824 4.56716 31.9898 4.53423 32.0009L2.00178 25.0577C2.04285 25.0372 2.07868 25.0085 2.10793 24.9736L3.30676 25.3443C3.30481 25.3595 3.30225 25.3743 3.30225 25.3899C3.30225 25.5748 3.45092 25.7245 3.63402 25.7245C3.67002 25.7245 3.70407 25.7172 3.73644 25.7067L6.19712 30.7252C6.11939 30.7864 6.06846 30.881 6.06846 30.9881C6.06846 31.0257 6.07592 31.0609 6.08718 31.0946L4.80839 32.0311H4.80833ZM13.415 37.3305C13.2648 37.3305 13.1393 37.432 13.0985 37.5701L11.1249 37.616C11.1078 37.4471 10.9682 37.315 10.7964 37.315C10.7754 37.315 10.7549 37.3175 10.7349 37.3213L9.63513 34.5472C9.74847 34.4936 9.82748 34.3787 9.82748 34.2442C9.82754 34.1899 9.81361 34.1395 9.79082 34.0941L10.4874 33.6038C10.5448 33.6519 10.6174 33.6818 10.6977 33.6818C10.8524 33.6818 10.9812 33.5746 11.0181 33.4301H12.9417C12.9727 33.5826 13.1064 33.6974 13.2668 33.6974C13.3694 33.6974 13.4599 33.6495 13.5208 33.5758L14.3476 34.0763C14.3192 34.1257 14.3017 34.182 14.3017 34.2432C14.3017 34.3506 14.3528 34.445 14.4306 34.5061L13.4169 37.3308C13.4163 37.3307 13.4157 37.3306 13.4151 37.3305H13.415ZM15.9507 33.3934C15.7692 33.3934 15.6221 33.5406 15.6195 33.723L14.8521 33.9932C14.7936 33.941 14.7177 33.9085 14.6334 33.9085C14.5754 33.9085 14.5215 33.925 14.474 33.9514L13.593 33.4182C13.5961 33.4001 13.5986 33.3818 13.5986 33.3627C13.5986 33.1779 13.45 33.028 13.2668 33.028C13.1203 33.028 12.9973 33.1245 12.9534 33.2576H11.0159C10.9769 33.1165 10.8499 33.0125 10.6977 33.0125C10.5146 33.0125 10.3659 33.1623 10.3659 33.3473C10.3659 33.3882 10.3742 33.4271 10.3878 33.4636L9.67658 33.9641C9.62459 33.9299 9.56257 33.9096 9.49576 33.9096C9.37445 33.9096 9.26947 33.9759 9.21163 34.0738L8.40938 33.7682C8.40983 33.7605 8.41161 33.7536 8.41161 33.7459C8.41161 33.5611 8.26305 33.4113 8.07978 33.4113C8.04975 33.4113 8.02122 33.4165 7.99358 33.4242L6.65305 31.2027C6.70158 31.1445 6.73212 31.0703 6.73212 30.9882C6.73212 30.8679 6.66837 30.7631 6.57381 30.704L7.52589 27.3814C7.54021 27.3833 7.55442 27.3859 7.56936 27.3859C7.70499 27.3859 7.82123 27.3035 7.8726 27.1859L8.60865 27.3527C8.61846 27.4812 8.72388 27.5828 8.85378 27.5828C8.91825 27.5828 8.97659 27.5572 9.02056 27.5162L10.3235 28.3696C10.3211 28.3839 10.3192 28.3983 10.3192 28.4134C10.3192 28.551 10.4297 28.6626 10.5662 28.6626C10.689 28.6626 10.7903 28.5717 10.8093 28.4531L11.8585 28.2039C11.8982 28.2883 11.9826 28.347 12.0812 28.347C12.1744 28.347 12.2546 28.2941 12.2967 28.217L13.3189 28.4747C13.3329 28.599 13.4362 28.6957 13.563 28.6957C13.6994 28.6957 13.8101 28.5842 13.8101 28.4467C13.8101 28.4395 13.8085 28.4326 13.8079 28.4256L14.9804 27.7684C15.0241 27.8075 15.0808 27.832 15.1438 27.832C15.2801 27.832 15.3908 27.7204 15.3908 27.5828C15.3908 27.5808 15.3902 27.5789 15.3902 27.5773L16.23 27.2783C16.2779 27.3554 16.3557 27.4115 16.4477 27.4293L17.3944 30.8335C17.2797 30.8862 17.1995 31.0022 17.1995 31.1379C17.1995 31.2226 17.2318 31.2994 17.2835 31.3584L16.0184 33.4006C15.9966 33.3961 15.9742 33.3935 15.951 33.3935L15.9507 33.3934ZM21.8265 24.8238C21.8265 24.8339 21.8285 24.8435 21.8294 24.8533L20.7963 25.1946C20.7361 25.1103 20.6386 25.055 20.5276 25.055C20.4961 25.055 20.4663 25.0608 20.4373 25.0691L19.9452 23.7381C20.0664 23.6883 20.1519 23.5685 20.1519 23.4284C20.1519 23.4012 20.1478 23.3755 20.1419 23.3504L21.9985 22.8375C22.037 22.9105 22.101 22.9671 22.1792 22.995L22.1241 24.4926C21.957 24.5102 21.8264 24.6508 21.8264 24.8239L21.8265 24.8238ZM22.9999 12.2658C22.9999 12.0964 22.8748 11.9578 22.7128 11.9355L22.2557 8.55173C22.3556 8.4941 22.4237 8.38672 22.4237 8.26214C22.4237 8.07734 22.2753 7.92752 22.0919 7.92752C22.0757 7.92752 22.0601 7.92993 22.0444 7.93229L20.0425 4.78614C20.0691 4.73785 20.0857 4.6832 20.0857 4.62411C20.0857 4.4392 19.9371 4.28932 19.7538 4.28932C19.6929 4.28932 19.6363 4.3072 19.5871 4.33627L16.3917 2.56695C16.3969 2.53406 16.3989 2.50016 16.3938 2.46542C16.3671 2.28248 16.1984 2.15615 16.0171 2.18314C15.9215 2.19742 15.8422 2.25206 15.7919 2.32689L12.278 1.29586C12.2775 1.29243 12.278 1.28929 12.2774 1.28603C12.2506 1.10303 12.082 0.976644 11.9009 1.00363C11.7542 1.0255 11.6457 1.14137 11.6231 1.28153L8.03615 2.33218C7.96449 2.24678 7.85277 2.19876 7.73497 2.21631C7.56373 2.24177 7.44409 2.39542 7.4539 2.56656L4.2857 4.24114C4.22123 4.20094 4.14378 4.18121 4.06315 4.19318C3.88188 4.22017 3.75667 4.39046 3.78336 4.57329C3.7901 4.6195 3.80604 4.66201 3.82889 4.69945L1.88922 8.14374C1.8686 8.13963 1.84743 8.13727 1.82558 8.13727C1.64237 8.13727 1.49392 8.28716 1.49392 8.47207C1.49392 8.60728 1.57371 8.72298 1.68817 8.77588L1.27309 11.8977C1.1179 11.9257 0.999878 12.0618 0.999878 12.2265C0.999878 12.3842 1.10843 12.5156 1.25409 12.551L1.40772 16.5213C1.29605 16.5751 1.21815 16.6891 1.21815 16.8225C1.21815 16.9651 1.30708 17.0861 1.43156 17.1342L1.49927 18.8842C1.39161 18.9394 1.31705 19.0512 1.31705 19.1815C1.31705 19.3212 1.4022 19.4408 1.52278 19.4909L1.71531 24.4563C1.60269 24.5097 1.52401 24.6245 1.52401 24.7585C1.52401 24.9349 1.65981 25.0781 1.8316 25.0907L4.38807 32.0997C4.33803 32.1583 4.3066 32.2337 4.3066 32.3173C4.3066 32.5019 4.45527 32.652 4.63849 32.652C4.66451 32.652 4.68964 32.648 4.71399 32.6423L6.9676 35.3759C6.95061 35.416 6.94119 35.4602 6.94119 35.5069C6.94119 35.6915 7.08975 35.8415 7.27297 35.8415C7.33972 35.8415 7.4018 35.8212 7.45401 35.7868L10.4685 37.6119C10.4671 37.6245 10.4648 37.6368 10.4648 37.6498C10.4648 37.8345 10.6135 37.9845 10.7965 37.9845C10.9304 37.9845 11.0448 37.9043 11.0973 37.7893L13.0931 37.743C13.1279 37.8901 13.2584 38 13.4151 38C13.5983 38 13.7469 37.8502 13.7469 37.6653C13.7469 37.6275 13.7392 37.5919 13.7277 37.5581L16.7946 35.8078C16.8542 35.8976 16.9554 35.9567 17.0705 35.9567C17.2536 35.9567 17.4022 35.8067 17.4022 35.6218C17.4022 35.5255 17.3611 35.4393 17.2965 35.3783L19.3633 32.7591C19.4024 32.7755 19.4454 32.7847 19.4902 32.7847C19.6736 32.7847 19.8222 32.6349 19.8222 32.45C19.8222 32.3353 19.7648 32.2344 19.6778 32.174L22.1694 25.1573C22.3474 25.1512 22.4901 25.0048 22.4901 24.8238C22.4901 24.688 22.4095 24.5714 22.2942 24.5191L22.3499 23.0094C22.5044 22.9809 22.6217 22.8449 22.6217 22.6807C22.6217 22.5253 22.5163 22.396 22.3739 22.3581L22.4745 19.6367C22.5989 19.5885 22.6876 19.4676 22.6876 19.325C22.6876 19.1913 22.6094 19.0768 22.497 19.0232L22.5646 17.1922C22.6849 17.142 22.7699 17.0226 22.7699 16.883C22.7699 16.7524 22.6949 16.6404 22.587 16.5854L22.7342 12.5937C22.8859 12.5628 22.9999 12.4277 22.9999 12.2658V12.2658Z" fill="#06BAD1"/>
<path fill-rule="evenodd" clip-rule="evenodd" d="M19.4901 32.1151C19.3993 32.1151 19.3172 32.1522 19.2572 32.2118L17.8448 31.2411C17.8554 31.2084 17.8627 31.1739 17.8627 31.1376C17.8627 31.039 17.8196 30.9513 17.7523 30.8899L20.4062 25.7004C20.4438 25.7155 20.4845 25.7243 20.5276 25.7243C20.7108 25.7243 20.8593 25.5746 20.8593 25.3896C20.8593 25.3784 20.8572 25.3677 20.856 25.3565L21.8871 25.0158C21.9166 25.0583 21.9562 25.0926 22.0018 25.1173L19.5159 32.1179C19.5073 32.1172 19.4991 32.1152 19.4902 32.1152L19.4901 32.1151ZM17.0703 35.287C17.0369 35.287 17.0052 35.2935 16.9748 35.3027L16.1839 33.9658C16.2447 33.9051 16.2823 33.8211 16.2823 33.728C16.2823 33.6288 16.2387 33.5406 16.1707 33.4793L17.4255 31.4534C17.4588 31.4647 17.4938 31.4722 17.5309 31.4722C17.616 31.4722 17.6927 31.439 17.7515 31.3859L19.1715 32.3619C19.164 32.3901 19.1584 32.4193 19.1584 32.4499C19.1584 32.5267 19.185 32.5965 19.228 32.6528L17.1428 35.2957C17.1194 35.2905 17.0952 35.287 17.0703 35.287ZM13.6321 37.414C13.6165 37.4002 13.5998 37.388 13.5819 37.3775L14.5882 34.5732C14.6032 34.5753 14.618 34.5777 14.6333 34.5777C14.8166 34.5777 14.9652 34.428 14.9652 34.2431C14.9652 34.2076 14.9582 34.1743 14.948 34.142L15.6623 33.8907C15.719 33.9928 15.8261 34.0627 15.9505 34.0627C15.9797 34.0627 16.0077 34.0577 16.0347 34.0507L16.829 35.3935C16.7732 35.4533 16.7384 35.5333 16.7384 35.6218C16.7384 35.6282 16.7398 35.6342 16.7402 35.6405L13.632 37.4141L13.6321 37.414ZM7.56891 35.6549C7.59104 35.6101 7.60452 35.5603 7.60452 35.5068C7.60452 35.3918 7.54707 35.2907 7.45981 35.2303L8.01381 34.0737C8.03504 34.0781 8.05716 34.0805 8.07962 34.0805C8.19463 34.0805 8.29576 34.0215 8.35528 33.9317L9.16427 34.2401C9.16427 34.2416 9.16393 34.2428 9.16393 34.2441C9.16393 34.4172 9.29488 34.5582 9.46216 34.5754L10.5808 37.3971C10.5629 37.4127 10.5467 37.43 10.5323 37.449L7.56886 35.6548L7.56891 35.6549ZM4.97021 32.3172C4.97021 32.2587 4.95399 32.2046 4.92791 32.1567L6.18196 31.2384C6.2403 31.2904 6.31626 31.3229 6.40017 31.3229C6.43991 31.3229 6.47752 31.3147 6.51268 31.3017L7.84463 33.5094C7.78495 33.5699 7.74784 33.6535 7.74784 33.7457C7.74784 33.8456 7.79225 33.9345 7.86107 33.9958L7.29648 35.1742C7.28857 35.1738 7.28088 35.1719 7.27285 35.1719C7.19913 35.1719 7.13154 35.197 7.07654 35.238L4.86729 32.5585C4.93025 32.4975 4.97015 32.4122 4.97015 32.3172L4.97021 32.3172ZM3.95772 4.81976C4.01662 4.85113 4.08493 4.8653 4.15576 4.85563L5.9443 8.7146C5.87136 8.77588 5.82416 8.86701 5.82416 8.97035C5.82416 8.99711 5.82801 9.02286 5.83392 9.04793L3.35134 10.7792C3.30782 10.7581 3.25984 10.7453 3.20841 10.7453C3.02541 10.7453 2.8768 10.8953 2.8768 11.0801C2.8768 11.0829 2.87758 11.0856 2.87769 11.0885L1.50813 11.9439C1.48807 11.9311 1.46628 11.9207 1.44354 11.9125L1.85701 8.80343C2.02524 8.78724 2.15714 8.64596 2.15714 8.47201C2.15714 8.37126 2.11222 8.2821 2.04246 8.22065L3.95766 4.81976H3.95772ZM11.6405 1.45598C11.6774 1.55212 11.7564 1.6238 11.8517 1.65359L11.9796 6.01298C11.85 6.04773 11.7515 6.15876 11.7361 6.29802L9.86911 6.31517C9.80491 6.21903 9.69391 6.16107 9.57372 6.16871L7.98661 2.80999C8.07744 2.7382 8.12949 2.62194 8.11143 2.49853C8.11099 2.49572 8.10993 2.49313 8.10932 2.49032L11.6404 1.45598H11.6405ZM15.7371 2.56307C15.7521 2.665 15.8118 2.74804 15.8924 2.79807L14.5516 6.08354C14.5512 6.08354 14.5509 6.08343 14.5507 6.08343C14.4183 6.08337 14.3049 6.16208 14.2517 6.27503L12.3924 6.29217C12.3753 6.1577 12.2794 6.04739 12.1506 6.01248L12.0229 1.65939C12.1281 1.63504 12.2113 1.56263 12.2524 1.46784L15.7352 2.48807C15.7334 2.5127 15.7334 2.53772 15.7371 2.56307H15.7371ZM19.4636 4.46473C19.4378 4.5124 19.4218 4.56609 19.4218 4.62406C19.4218 4.7279 19.4699 4.81965 19.5434 4.8811L17.9064 8.53014C17.8911 8.52789 17.876 8.52547 17.8601 8.52547C17.784 8.52547 17.7146 8.5524 17.6587 8.59598L14.8697 6.50458C14.8772 6.47686 14.8825 6.4483 14.8825 6.41822C14.8825 6.29499 14.8157 6.1885 14.7176 6.13049L16.0572 2.84805C16.0759 2.84845 16.0946 2.84822 16.1137 2.84547C16.199 2.83271 16.271 2.78767 16.3215 2.72516L19.4635 4.46473H19.4636ZM21.8894 8.52564L20.9117 10.6746C20.8994 10.6732 20.8872 10.6709 20.8745 10.6709C20.7989 10.6709 20.7298 10.6976 20.6739 10.7406L18.1723 8.9699C18.1841 8.93538 18.192 8.89889 18.192 8.86016C18.192 8.75328 18.1413 8.65917 18.0639 8.59794L19.6991 4.95334C19.7171 4.95626 19.7351 4.95885 19.7537 4.95885C19.8145 4.95885 19.8705 4.9412 19.9195 4.91241L21.8855 8.00206C21.8097 8.0634 21.7601 8.15656 21.7601 8.26208C21.7601 8.36974 21.8112 8.46436 21.8895 8.52559L21.8894 8.52564ZM22.4903 11.984L21.1914 11.0994C21.2001 11.0695 21.2065 11.0385 21.2065 11.0055C21.2065 10.8954 21.1529 10.7984 21.0715 10.7375L22.0473 8.59238C22.0611 8.59423 22.0746 8.59648 22.0889 8.59659L22.5429 11.956C22.5244 11.9638 22.5072 11.9733 22.4904 11.984L22.4903 11.984ZM22.2105 16.6405L20.2644 15.4951C20.2811 15.445 20.2877 15.3906 20.2788 15.3348C20.2598 15.2184 20.1833 15.1265 20.0835 15.0826L20.8776 11.3401C20.965 11.3394 21.0442 11.3042 21.103 11.2474L22.3743 12.1132C22.3509 12.1592 22.3363 12.2106 22.3363 12.2658C22.3363 12.4136 22.4318 12.5376 22.5634 12.5819L22.4169 16.5503C22.337 16.5555 22.2651 16.5882 22.2104 16.6405H22.2105ZM22.0974 19.1173L20.3142 18.5175C20.3146 18.5098 20.3165 18.5023 20.3165 18.4943C20.3165 18.4598 20.3097 18.4271 20.3 18.3957L22.2112 17.126C22.2601 17.1725 22.3228 17.2033 22.3926 17.213L22.3268 18.9932C22.2339 19.0014 22.1526 19.0476 22.0973 19.1173L22.0974 19.1173ZM21.9594 22.6691L20.0572 23.1947C20.0336 23.1703 20.0059 23.1507 19.976 23.1345L22.2034 19.6209C22.2343 19.637 22.2672 19.6487 22.3026 19.6543L22.2028 22.3592C22.0659 22.3969 21.9647 22.5201 21.9594 22.6691ZM17.5643 30.8064L16.6212 27.4149C16.7495 27.3686 16.8418 27.2461 16.8418 27.1009C16.8418 27.0171 16.8102 26.9415 16.7601 26.8828L19.5839 23.6632C19.633 23.7133 19.6979 23.7468 19.77 23.7581L20.2881 25.159C20.2314 25.2191 20.1959 25.3001 20.1959 25.3898C20.1959 25.4676 20.2232 25.5383 20.2677 25.5952L17.6008 30.8106C17.5891 30.8081 17.5766 30.8075 17.5643 30.8064H17.5643ZM1.82174 19.4659L4.24843 23.1516C4.1834 23.2128 4.14199 23.2994 4.14199 23.3962C4.14199 23.4809 4.1742 23.5573 4.22563 23.6163L3.68635 25.0604C3.66918 25.0575 3.65197 25.0551 3.63402 25.0551C3.52793 25.0551 3.43459 25.1061 3.37391 25.1844L2.18188 24.816C2.185 24.7972 2.18756 24.7782 2.18756 24.7586C2.18756 24.5839 2.05449 24.4422 1.88537 24.4268L1.69486 19.5116C1.74088 19.505 1.78374 19.4895 1.82174 19.466V19.4659ZM1.74974 17.0881L3.82599 18.3644C3.81819 18.3849 3.81256 18.406 3.80883 18.4283L1.86593 18.9303C1.81249 18.8831 1.74451 18.8535 1.66917 18.8487L1.6033 17.1518C1.6578 17.1428 1.70745 17.1205 1.74969 17.0881H1.74974ZM6.15605 9.3052C6.17823 9.3052 6.19985 9.30272 6.22086 9.29851L8.03782 13.0848C7.95396 13.1456 7.89896 13.2442 7.89896 13.3562C7.89896 13.3813 7.90219 13.4059 7.90732 13.4294L4.51473 15.0884C4.45466 15.0039 4.35692 14.9484 4.24592 14.9484C4.23082 14.9484 4.21638 14.951 4.20156 14.9529L3.38539 11.3625C3.47833 11.3032 3.54041 11.1993 3.54041 11.0802C3.54041 11.0119 3.5199 10.9486 3.48518 10.8957L5.916 9.20057C5.97646 9.26477 6.06138 9.3052 6.156 9.3052H6.15605ZM11.8371 12.5278C11.7524 12.5835 11.6956 12.6772 11.6883 12.785L8.53655 13.2266C8.48645 13.106 8.36832 13.0214 8.23063 13.0214C8.21982 13.0214 8.20951 13.0237 8.19897 13.0246L6.37387 9.22115C6.44319 9.1597 6.48783 9.0707 6.48783 8.97046C6.48783 8.91671 6.47412 8.86679 6.45183 8.82176L9.33093 6.70213C9.40181 6.79642 9.51883 6.85095 9.64304 6.83234C9.64906 6.83155 9.65452 6.8293 9.66065 6.82801L11.8371 12.5278H11.8371ZM15.5668 17.9768C15.6229 18.021 15.6928 18.0484 15.7696 18.0484C15.9361 18.0484 16.0726 17.9242 16.0964 17.7628L18.041 17.8951C18.0489 18.0727 18.1932 18.2146 18.3712 18.2146C18.492 18.2146 18.5966 18.1486 18.6546 18.0514L19.6567 18.4575C19.6552 18.4697 19.6531 18.4819 19.6531 18.4944C19.6531 18.5578 19.6714 18.6164 19.7017 18.6668L18.8848 19.4898C18.8526 19.4794 18.8187 19.4722 18.7829 19.4722C18.6497 19.4722 18.5357 19.5516 18.483 19.6659H16.3507C16.3112 19.5256 16.1847 19.4223 16.033 19.4223C15.9458 19.4223 15.8668 19.4571 15.8075 19.5129L15.14 19.0789C15.1544 19.0417 15.1629 19.0018 15.1629 18.9597C15.1629 18.835 15.0945 18.7275 14.9944 18.6698L15.5668 17.9768V17.9768ZM13.5753 27.277C13.5696 27.2416 13.5571 27.2085 13.5383 27.1799L14.5983 25.999C14.6226 26.0101 14.6491 26.0163 14.6768 26.0188L15.0266 27.3644C14.9897 27.3845 14.9583 27.4132 14.9359 27.4486L13.5753 27.277ZM11.0778 27.3998C11.087 27.3736 11.093 27.3459 11.093 27.3168C11.093 27.2277 11.0463 27.1502 10.9767 27.1062L11.1668 18.7207C11.3057 18.689 11.41 18.5695 11.4223 18.423L12.777 18.4434C12.799 18.5551 12.8759 18.6466 12.9782 18.6883L13.1985 27.1079C13.1305 27.1522 13.0852 27.2291 13.0852 27.3168C13.0852 27.3277 13.0871 27.3381 13.0885 27.3485L12.2012 27.8813C12.1656 27.861 12.1249 27.8484 12.081 27.8484C12.0263 27.8484 11.9764 27.8669 11.9355 27.897L11.0779 27.3998H11.0778ZM9.08458 27.2474C9.0726 27.2148 9.05455 27.1852 9.03098 27.1608L9.39061 25.9871C9.39273 25.9872 9.39479 25.9878 9.39691 25.9878C9.4362 25.9878 9.47264 25.9778 9.50557 25.9615L10.6194 27.2176C10.6094 27.2409 10.6039 27.2662 10.6013 27.2925L9.08453 27.2474H9.08458ZM8.33082 19.5059C8.27364 19.4583 8.20115 19.4286 8.12124 19.4286C7.9719 19.4286 7.84697 19.5289 7.8054 19.6659H5.74515C5.7203 19.5058 5.58411 19.383 5.41844 19.383C5.3396 19.3829 5.26827 19.4118 5.21132 19.4581L4.41715 18.658C4.44814 18.6071 4.46692 18.5479 4.46692 18.4837C4.46692 18.4757 4.46502 18.4681 4.46446 18.4601L5.5514 18.0195C5.61208 18.0973 5.70531 18.1482 5.81107 18.1482C5.96743 18.1482 6.09754 18.0388 6.13276 17.892L8.08675 17.7591C8.13673 17.8803 8.25492 17.9655 8.393 17.9655C8.44087 17.9655 8.48623 17.9547 8.52729 17.9363L9.15201 18.6925C9.094 18.7527 9.05772 18.8348 9.05772 18.9255C9.05778 18.9596 9.06424 18.9919 9.0736 19.0228L8.33082 19.5059V19.5059ZM8.23063 13.691C8.26256 13.691 8.29264 13.685 8.32184 13.6765L9.46556 16.0565C9.42867 16.0926 9.40098 16.1376 9.38376 16.1878L4.57429 15.3174C4.57558 15.306 4.5778 15.2951 4.5778 15.2832C4.5778 15.2723 4.57569 15.2618 4.57452 15.2511L7.98734 13.5821C8.04791 13.6487 8.13406 13.691 8.23063 13.691ZM10.8064 27.0716C10.7824 27.0756 10.7598 27.0829 10.7388 27.0933L9.62421 25.8363C9.63691 25.8063 9.64393 25.7734 9.64393 25.7386C9.64393 25.6455 9.59261 25.5653 9.51772 25.5224L10.9855 19.1647L10.8064 27.0716V27.0716ZM13.1021 18.0434C12.9563 18.0434 12.8339 18.139 12.7895 18.271L11.3914 18.2499C11.3377 18.1379 11.225 18.06 11.0935 18.06C11.0655 18.06 11.0387 18.0646 11.0128 18.0712L9.93497 16.5282C9.96685 16.4947 9.9912 16.4542 10.0071 16.4095L11.8214 16.3632C11.8759 16.4725 11.987 16.5482 12.1166 16.5482C12.2429 16.5482 12.3513 16.4761 12.4074 16.3712L14.1101 16.4373C14.1107 16.4417 14.1103 16.4459 14.111 16.4505C14.117 16.4882 14.1304 16.5228 14.1476 16.5546L13.1591 18.0492C13.1403 18.0459 13.1217 18.0434 13.1022 18.0434H13.1021ZM14.4519 25.7718C14.4519 25.8101 14.4609 25.8455 14.4761 25.8779L13.3989 27.0781C13.3891 27.0752 13.3791 27.0729 13.3687 27.0713L13.1642 19.2459L14.5665 25.5621C14.4976 25.6064 14.4519 25.6834 14.4519 25.7718V25.7718ZM19.6214 15.3636L14.7169 16.2151C14.6862 16.167 14.6434 16.129 14.5942 16.1022L15.7161 13.7052C15.7238 13.7058 15.7312 13.7075 15.7389 13.7075C15.8533 13.7075 15.954 13.6493 16.0136 13.5606L19.6242 15.3434C19.6234 15.3501 19.622 15.3568 19.6214 15.3636ZM15.4084 13.386C15.4128 13.4957 15.4684 13.592 15.5528 13.6498L14.423 16.0635C14.4103 16.064 14.3973 16.0638 14.3845 16.0659C14.268 16.0852 14.1766 16.1637 14.1334 16.2655L12.4469 16.2C12.4401 16.0278 12.3049 15.8902 12.135 15.8806L12.1279 13.1222C12.212 13.0923 12.2804 13.0299 12.3178 12.9489L15.4085 13.386L15.4084 13.386ZM11.721 12.9546C11.7664 13.0479 11.8525 13.1168 11.9567 13.1365L11.9639 15.9179C11.8641 15.9705 11.7947 16.072 11.787 16.1914L10.022 16.2366C9.99376 16.0804 9.85897 15.9618 9.69609 15.9618C9.66823 15.9617 9.64148 15.9664 9.61557 15.9729L8.46945 13.5878C8.51771 13.5371 8.54914 13.4711 8.55839 13.3978L11.721 12.9546ZM1.87122 16.7425L4.02793 15.5336C4.08638 15.5855 4.16211 15.6179 4.24603 15.6179C4.35541 15.6179 4.45154 15.5639 4.51194 15.4815L9.37083 16.3607C9.40053 16.5148 9.53471 16.6313 9.6962 16.6313C9.72813 16.6313 9.75828 16.6253 9.78764 16.6168L10.8623 18.1552C10.8105 18.2063 10.7763 18.2744 10.7663 18.3504L9.65524 18.7266C9.59478 18.6446 9.49877 18.5908 9.38972 18.5908C9.35907 18.5908 9.32993 18.5962 9.3019 18.6042L8.66047 17.8275C8.70054 17.7722 8.72511 17.7046 8.72511 17.6306C8.72511 17.4457 8.57644 17.2959 8.39322 17.2959C8.22461 17.2959 8.08691 17.4232 8.06574 17.5875L6.12819 17.7192C6.08751 17.5806 5.96191 17.4788 5.81124 17.4788C5.62802 17.4788 5.47957 17.6287 5.47957 17.8134C5.47957 17.831 5.48214 17.8476 5.48459 17.8644L4.41052 18.2971C4.35101 18.2078 4.24987 18.149 4.13525 18.149C4.05624 18.149 3.98458 18.178 3.92752 18.2246L1.85623 16.9515C1.87278 16.9117 1.88197 16.8681 1.88197 16.8225C1.88197 16.7948 1.87763 16.7682 1.87139 16.7425H1.87122ZM6.40029 30.6534C6.38468 30.6534 6.36992 30.656 6.3547 30.6581L3.88065 25.6117C3.93309 25.5525 3.9658 25.4753 3.9658 25.3898C3.9658 25.2851 3.91726 25.1928 3.84265 25.1315L4.3723 23.7133C4.40445 23.7238 4.43811 23.731 4.47377 23.731C4.53986 23.731 4.60099 23.711 4.65258 23.6775L7.29548 26.8623C7.25904 26.916 7.23747 26.9809 7.23747 27.051C7.23747 27.1584 7.28868 27.2532 7.36675 27.3143L6.40981 30.6544C6.40658 30.6542 6.40352 30.6534 6.40029 30.6534V30.6534ZM7.89746 27.0146C7.87924 26.8471 7.74015 26.7163 7.56925 26.7163C7.51776 26.7163 7.4695 26.7293 7.42593 26.7505L4.76821 23.5476C4.79122 23.502 4.80555 23.4509 4.80555 23.3962C4.80555 23.2113 4.65699 23.0616 4.47377 23.0616C4.44847 23.0616 4.42401 23.0649 4.40027 23.0703L1.94143 19.3358C1.96556 19.2894 1.98049 19.2375 1.98049 19.1814C1.98049 19.1469 1.97397 19.1143 1.96428 19.0831L3.82565 18.6019C3.8733 18.7282 3.99327 18.8185 4.13508 18.8185C4.19237 18.8185 4.24547 18.8023 4.29267 18.7766L5.10913 19.5992C5.09508 19.636 5.08672 19.6758 5.08672 19.7176C5.08672 19.9025 5.23512 20.0524 5.41839 20.0524C5.55926 20.0524 5.67889 19.9635 5.72698 19.8384H7.79844C7.83243 19.987 7.9636 20.0981 8.12113 20.0981C8.30451 20.098 8.4529 19.9482 8.4529 19.7633C8.4529 19.7218 8.44444 19.6826 8.43089 19.646L9.16382 19.1694C9.223 19.2252 9.30207 19.2602 9.3895 19.2602C9.57272 19.2602 9.72127 19.1103 9.72127 18.9254C9.72127 18.9124 9.71893 18.9 9.71754 18.8875L10.7876 18.5251C10.8148 18.5901 10.8625 18.6436 10.9217 18.6799L9.34854 25.4943C9.23526 25.517 9.14978 25.6178 9.14978 25.7386C9.14978 25.8117 9.18159 25.8768 9.23108 25.9223L8.87462 27.0864C8.86754 27.0859 8.86069 27.0842 8.8535 27.0842C8.77186 27.0842 8.69998 27.1247 8.65512 27.1864L7.89729 27.0146H7.89746ZM10.7761 28.2835C10.7325 28.2121 10.6551 28.1641 10.566 28.1641C10.5069 28.1641 10.4533 28.1859 10.4107 28.2208L9.19307 27.4233L10.6497 27.4666C10.6948 27.5266 10.7657 27.566 10.846 27.566C10.8896 27.566 10.93 27.5537 10.9656 27.5337L11.8277 28.0337L10.7762 28.2835L10.7761 28.2835ZM13.7353 28.2686C13.6907 28.2246 13.63 28.1973 13.5627 28.1973C13.4776 28.1973 13.4026 28.2407 13.3582 28.3069L12.3222 28.0454C12.32 28.035 12.3164 28.0251 12.313 28.0152L13.168 27.5017C13.2118 27.5413 13.2689 27.566 13.3323 27.566C13.4215 27.566 13.4987 27.5181 13.5421 27.4468L14.8967 27.6176L13.7354 28.2686L13.7353 28.2686ZM22.0755 19.5026L19.7971 23.0961C19.6248 23.108 19.4885 23.2515 19.4885 23.4283C19.4885 23.4536 19.4917 23.4781 19.4968 23.5018L16.617 26.7854C16.5833 26.7737 16.5477 26.7661 16.51 26.7661C16.3269 26.7661 16.1784 26.916 16.1784 27.1008C16.1784 27.1049 16.1794 27.1087 16.1795 27.1129L15.3265 27.4165C15.2926 27.3786 15.248 27.3511 15.197 27.3396L14.8422 25.974C14.9047 25.9289 14.9458 25.8553 14.9458 25.7717C14.9459 25.6461 14.8534 25.5432 14.7336 25.526L13.2163 18.6912C13.2849 18.6657 13.3427 18.6188 13.3815 18.5577L14.5032 18.9213C14.5018 18.934 14.4993 18.9464 14.4993 18.9595C14.4994 19.1443 14.6479 19.2942 14.8311 19.2942C14.9102 19.2942 14.982 19.265 15.0389 19.2184L15.7175 19.6593C15.7079 19.6904 15.7013 19.7227 15.7013 19.7569C15.7013 19.9418 15.8498 20.0916 16.033 20.0916C16.1883 20.0916 16.3175 19.9836 16.3538 19.8383H18.4542C18.4702 20.0081 18.6105 20.1414 18.7829 20.1414C18.966 20.1414 19.1146 19.9916 19.1146 19.8067C19.1146 19.7219 19.0824 19.6455 19.0309 19.5865L19.8254 18.7862C19.8729 18.8126 19.9267 18.8291 19.9848 18.8291C20.0995 18.8291 20.2005 18.7705 20.2601 18.6814L22.029 19.2762C22.0267 19.2922 22.0241 19.3083 22.0241 19.325C22.0241 19.3904 22.0433 19.4508 22.0756 19.5025L22.0755 19.5026ZM22.1219 16.9788L20.2094 18.2495C20.1502 18.1943 20.0718 18.1597 19.9848 18.1597C19.8752 18.1597 19.7788 18.2139 19.7184 18.2966L18.7026 17.8846C18.7026 17.8829 18.703 17.8815 18.703 17.8798C18.703 17.6949 18.5543 17.545 18.3712 17.545C18.2422 17.545 18.1317 17.62 18.0768 17.7283L16.0771 17.5891C16.028 17.466 15.9091 17.379 15.7696 17.379C15.5865 17.379 15.4378 17.5288 15.4378 17.7138C15.4378 17.7566 15.4465 17.7973 15.4611 17.835L14.8067 18.6274C14.7079 18.6348 14.6215 18.6848 14.5658 18.7604L13.4325 18.393C13.4325 18.388 13.4339 18.3833 13.4339 18.3781C13.4339 18.2756 13.3873 18.185 13.3153 18.1236L14.2688 16.6823C14.3338 16.7215 14.4115 16.7398 14.4918 16.7266C14.6596 16.6987 14.7756 16.5485 14.768 16.3813L19.6537 15.5333C19.7158 15.6638 19.8564 15.7439 20.005 15.7192C20.0691 15.7088 20.1251 15.6797 20.1701 15.6396L22.1217 16.7879C22.1126 16.8183 22.1063 16.8497 22.1063 16.883C22.1063 16.9165 22.1127 16.9483 22.1219 16.9788ZM20.5685 10.8767C20.5521 10.9166 20.5428 10.9601 20.5428 11.0056C20.5428 11.1306 20.6115 11.2383 20.7121 11.2957L19.914 15.0576C19.9085 15.0582 19.9031 15.0577 19.8976 15.0586C19.8119 15.0729 19.7401 15.1196 19.6904 15.1838L16.0684 13.3953C16.069 13.3877 16.0707 13.3805 16.0707 13.3727C16.0707 13.2828 16.0351 13.2016 15.9779 13.1415L17.7957 9.18848C17.8165 9.19259 17.8381 9.19506 17.8602 9.19506C17.9429 9.19506 18.018 9.16324 18.076 9.1127L20.5685 10.8767ZM14.5507 6.75301C14.6417 6.75301 14.7243 6.7158 14.7843 6.6557L17.5537 8.73242C17.5376 8.77183 17.5284 8.81495 17.5284 8.86021C17.5284 8.96068 17.5732 9.04967 17.6426 9.11107L15.8301 13.0525C15.8011 13.044 15.7709 13.038 15.7388 13.038C15.6115 13.038 15.5026 13.111 15.4468 13.2171L12.3464 12.7787C12.3389 12.6903 12.2977 12.6124 12.2354 12.5573L14.4755 6.74362C14.4997 6.74925 14.5246 6.75301 14.5507 6.75301ZM12.369 6.46505L14.2218 6.44802C14.2292 6.5319 14.2662 6.60667 14.3236 6.66121L12.1295 12.3557L12.1603 6.65418C12.2543 6.62534 12.3308 6.55613 12.3689 6.46505H12.369ZM11.7624 6.47067C11.804 6.56484 11.8866 6.63681 11.9894 6.66076L11.9583 12.3651L9.81433 6.75144C9.887 6.68628 9.92873 6.59042 9.92427 6.48748L11.7624 6.47062V6.47067ZM4.43972 4.47552C4.43426 4.43831 4.42161 4.40418 4.40551 4.37247L7.50723 2.73145C7.57565 2.83585 7.6988 2.89747 7.8297 2.87881L9.41067 6.22398C9.31132 6.29111 9.25236 6.40962 9.26574 6.5364L6.33877 8.69149C6.28633 8.6563 6.22359 8.63572 6.15605 8.63572C6.1366 8.63572 6.11782 8.63837 6.09932 8.64151L4.31345 4.78822C4.40506 4.71654 4.45794 4.5996 4.43978 4.47558L4.43972 4.47552ZM1.66337 12.2265C1.66337 12.1713 1.64889 12.1199 1.62531 12.0739L2.92924 11.2595C2.98819 11.3527 3.09094 11.415 3.20846 11.415C3.21303 11.415 3.2171 11.4139 3.22156 11.4137L4.04169 15.0214C3.96463 15.0826 3.91431 15.1765 3.91431 15.2832C3.91431 15.3206 3.92178 15.356 3.93287 15.3894L1.78886 16.5911C1.7347 16.5341 1.66064 16.4976 1.57778 16.4904L1.42493 12.5461C1.56251 12.5053 1.66337 12.3785 1.66343 12.2265L1.66337 12.2265ZM4.80833 32.0311C4.75846 32.0008 4.70084 31.9824 4.63843 31.9824C4.60177 31.9824 4.56716 31.9898 4.53423 32.0009L2.00178 25.0577C2.04285 25.0372 2.07868 25.0085 2.10793 24.9736L3.30676 25.3443C3.30481 25.3595 3.30225 25.3743 3.30225 25.3899C3.30225 25.5748 3.45092 25.7245 3.63402 25.7245C3.67002 25.7245 3.70407 25.7172 3.73644 25.7067L6.19712 30.7252C6.11939 30.7864 6.06846 30.881 6.06846 30.9881C6.06846 31.0257 6.07592 31.0609 6.08718 31.0946L4.80839 32.0311H4.80833ZM13.415 37.3305C13.2648 37.3305 13.1393 37.432 13.0985 37.5701L11.1249 37.616C11.1078 37.4471 10.9682 37.315 10.7964 37.315C10.7754 37.315 10.7549 37.3175 10.7349 37.3213L9.63513 34.5472C9.74847 34.4936 9.82748 34.3787 9.82748 34.2442C9.82754 34.1899 9.81361 34.1395 9.79082 34.0941L10.4874 33.6038C10.5448 33.6519 10.6174 33.6818 10.6977 33.6818C10.8524 33.6818 10.9812 33.5746 11.0181 33.4301H12.9417C12.9727 33.5826 13.1064 33.6974 13.2668 33.6974C13.3694 33.6974 13.4599 33.6495 13.5208 33.5758L14.3476 34.0763C14.3192 34.1257 14.3017 34.182 14.3017 34.2432C14.3017 34.3506 14.3528 34.445 14.4306 34.5061L13.4169 37.3308C13.4163 37.3307 13.4157 37.3306 13.4151 37.3305H13.415ZM15.9507 33.3934C15.7692 33.3934 15.6221 33.5406 15.6195 33.723L14.8521 33.9932C14.7936 33.941 14.7177 33.9085 14.6334 33.9085C14.5754 33.9085 14.5215 33.925 14.474 33.9514L13.593 33.4182C13.5961 33.4001 13.5986 33.3818 13.5986 33.3627C13.5986 33.1779 13.45 33.028 13.2668 33.028C13.1203 33.028 12.9973 33.1245 12.9534 33.2576H11.0159C10.9769 33.1165 10.8499 33.0125 10.6977 33.0125C10.5146 33.0125 10.3659 33.1623 10.3659 33.3473C10.3659 33.3882 10.3742 33.4271 10.3878 33.4636L9.67658 33.9641C9.62459 33.9299 9.56257 33.9096 9.49576 33.9096C9.37445 33.9096 9.26947 33.9759 9.21163 34.0738L8.40938 33.7682C8.40983 33.7605 8.41161 33.7536 8.41161 33.7459C8.41161 33.5611 8.26305 33.4113 8.07978 33.4113C8.04975 33.4113 8.02122 33.4165 7.99358 33.4242L6.65305 31.2027C6.70158 31.1445 6.73212 31.0703 6.73212 30.9882C6.73212 30.8679 6.66837 30.7631 6.57381 30.704L7.52589 27.3814C7.54021 27.3833 7.55442 27.3859 7.56936 27.3859C7.70499 27.3859 7.82123 27.3035 7.8726 27.1859L8.60865 27.3527C8.61846 27.4812 8.72388 27.5828 8.85378 27.5828C8.91825 27.5828 8.97659 27.5572 9.02056 27.5162L10.3235 28.3696C10.3211 28.3839 10.3192 28.3983 10.3192 28.4134C10.3192 28.551 10.4297 28.6626 10.5662 28.6626C10.689 28.6626 10.7903 28.5717 10.8093 28.4531L11.8585 28.2039C11.8982 28.2883 11.9826 28.347 12.0812 28.347C12.1744 28.347 12.2546 28.2941 12.2967 28.217L13.3189 28.4747C13.3329 28.599 13.4362 28.6957 13.563 28.6957C13.6994 28.6957 13.8101 28.5842 13.8101 28.4467C13.8101 28.4395 13.8085 28.4326 13.8079 28.4256L14.9804 27.7684C15.0241 27.8075 15.0808 27.832 15.1438 27.832C15.2801 27.832 15.3908 27.7204 15.3908 27.5828C15.3908 27.5808 15.3902 27.5789 15.3902 27.5773L16.23 27.2783C16.2779 27.3554 16.3557 27.4115 16.4477 27.4293L17.3944 30.8335C17.2797 30.8862 17.1995 31.0022 17.1995 31.1379C17.1995 31.2226 17.2318 31.2994 17.2835 31.3584L16.0184 33.4006C15.9966 33.3961 15.9742 33.3935 15.951 33.3935L15.9507 33.3934ZM21.8265 24.8238C21.8265 24.8339 21.8285 24.8435 21.8294 24.8533L20.7963 25.1946C20.7361 25.1103 20.6386 25.055 20.5276 25.055C20.4961 25.055 20.4663 25.0608 20.4373 25.0691L19.9452 23.7381C20.0664 23.6883 20.1519 23.5685 20.1519 23.4284C20.1519 23.4012 20.1478 23.3755 20.1419 23.3504L21.9985 22.8375C22.037 22.9105 22.101 22.9671 22.1792 22.995L22.1241 24.4926C21.957 24.5102 21.8264 24.6508 21.8264 24.8239L21.8265 24.8238ZM22.9999 12.2658C22.9999 12.0964 22.8748 11.9578 22.7128 11.9355L22.2557 8.55173C22.3556 8.4941 22.4237 8.38672 22.4237 8.26214C22.4237 8.07734 22.2753 7.92752 22.0919 7.92752C22.0757 7.92752 22.0601 7.92993 22.0444 7.93229L20.0425 4.78614C20.0691 4.73785 20.0857 4.6832 20.0857 4.62411C20.0857 4.4392 19.9371 4.28932 19.7538 4.28932C19.6929 4.28932 19.6363 4.3072 19.5871 4.33627L16.3917 2.56695C16.3969 2.53406 16.3989 2.50016 16.3938 2.46542C16.3671 2.28248 16.1984 2.15615 16.0171 2.18314C15.9215 2.19742 15.8422 2.25206 15.7919 2.32689L12.278 1.29586C12.2775 1.29243 12.278 1.28929 12.2774 1.28603C12.2506 1.10303 12.082 0.976644 11.9009 1.00363C11.7542 1.0255 11.6457 1.14137 11.6231 1.28153L8.03615 2.33218C7.96449 2.24678 7.85277 2.19876 7.73497 2.21631C7.56373 2.24177 7.44409 2.39542 7.4539 2.56656L4.2857 4.24114C4.22123 4.20094 4.14378 4.18121 4.06315 4.19318C3.88188 4.22017 3.75667 4.39046 3.78336 4.57329C3.7901 4.6195 3.80604 4.66201 3.82889 4.69945L1.88922 8.14374C1.8686 8.13963 1.84743 8.13727 1.82558 8.13727C1.64237 8.13727 1.49392 8.28716 1.49392 8.47207C1.49392 8.60728 1.57371 8.72298 1.68817 8.77588L1.27309 11.8977C1.1179 11.9257 0.999878 12.0618 0.999878 12.2265C0.999878 12.3842 1.10843 12.5156 1.25409 12.551L1.40772 16.5213C1.29605 16.5751 1.21815 16.6891 1.21815 16.8225C1.21815 16.9651 1.30708 17.0861 1.43156 17.1342L1.49927 18.8842C1.39161 18.9394 1.31705 19.0512 1.31705 19.1815C1.31705 19.3212 1.4022 19.4408 1.52278 19.4909L1.71531 24.4563C1.60269 24.5097 1.52401 24.6245 1.52401 24.7585C1.52401 24.9349 1.65981 25.0781 1.8316 25.0907L4.38807 32.0997C4.33803 32.1583 4.3066 32.2337 4.3066 32.3173C4.3066 32.5019 4.45527 32.652 4.63849 32.652C4.66451 32.652 4.68964 32.648 4.71399 32.6423L6.9676 35.3759C6.95061 35.416 6.94119 35.4602 6.94119 35.5069C6.94119 35.6915 7.08975 35.8415 7.27297 35.8415C7.33972 35.8415 7.4018 35.8212 7.45401 35.7868L10.4685 37.6119C10.4671 37.6245 10.4648 37.6368 10.4648 37.6498C10.4648 37.8345 10.6135 37.9845 10.7965 37.9845C10.9304 37.9845 11.0448 37.9043 11.0973 37.7893L13.0931 37.743C13.1279 37.8901 13.2584 38 13.4151 38C13.5983 38 13.7469 37.8502 13.7469 37.6653C13.7469 37.6275 13.7392 37.5919 13.7277 37.5581L16.7946 35.8078C16.8542 35.8976 16.9554 35.9567 17.0705 35.9567C17.2536 35.9567 17.4022 35.8067 17.4022 35.6218C17.4022 35.5255 17.3611 35.4393 17.2965 35.3783L19.3633 32.7591C19.4024 32.7755 19.4454 32.7847 19.4902 32.7847C19.6736 32.7847 19.8222 32.6349 19.8222 32.45C19.8222 32.3353 19.7648 32.2344 19.6778 32.174L22.1694 25.1573C22.3474 25.1512 22.4901 25.0048 22.4901 24.8238C22.4901 24.688 22.4095 24.5714 22.2942 24.5191L22.3499 23.0094C22.5044 22.9809 22.6217 22.8449 22.6217 22.6807C22.6217 22.5253 22.5163 22.396 22.3739 22.3581L22.4745 19.6367C22.5989 19.5885 22.6876 19.4676 22.6876 19.325C22.6876 19.1913 22.6094 19.0768 22.497 19.0232L22.5646 17.1922C22.6849 17.142 22.7699 17.0226 22.7699 16.883C22.7699 16.7524 22.6949 16.6404 22.587 16.5854L22.7342 12.5937C22.8859 12.5628 22.9999 12.4277 22.9999 12.2658V12.2658Z" stroke="#06BAD1" stroke-width="0.161168" mask="url(#path-1-outside-1_5_3920)"/>
<path d="M14.1893 29.2861C14.3482 29.2862 14.4763 29.4161 14.4764 29.5752C14.4764 29.5914 14.4713 29.6064 14.4686 29.6211L16.0165 30.5264C16.0515 30.5104 16.0897 30.4991 16.1317 30.499L16.1903 30.5049C16.3212 30.532 16.4197 30.6486 16.4198 30.7881C16.4198 30.9477 16.2907 31.0781 16.1317 31.0781C16.1018 31.0781 16.0735 31.0719 16.0468 31.0635L14.7557 32.1855C14.7548 32.3244 14.6575 32.4398 14.5272 32.4668L14.4686 32.4736C14.3754 32.4735 14.2943 32.4273 14.2421 32.3584L9.81238 32.4355C9.764 32.526 9.67208 32.5898 9.56238 32.5898C9.40332 32.5898 9.27527 32.4592 9.27527 32.2998C9.27528 32.2873 9.27763 32.2754 9.27917 32.2637L7.88367 31.04C7.85273 31.052 7.81989 31.0615 7.78406 31.0615C7.62511 31.0615 7.49695 30.931 7.49695 30.7715C7.49701 30.6119 7.62521 30.4824 7.78406 30.4824C7.84758 30.4824 7.90495 30.5043 7.95203 30.5391L9.72839 29.6436C9.75766 29.5156 9.86999 29.4191 10.0067 29.4189C10.1326 29.4189 10.2373 29.5013 10.2762 29.6143L11.7499 29.9756C11.8014 29.9014 11.8855 29.8505 11.9833 29.8506L12.0604 29.8623C12.1237 29.8804 12.1755 29.9213 12.2128 29.9736L13.9042 29.5527C13.9158 29.4039 14.0381 29.2861 14.1893 29.2861ZM12.2587 31.2979C12.2213 31.3391 12.1737 31.3707 12.118 31.3848L12.0487 31.3936C11.9661 31.3936 11.8938 31.3565 11.8417 31.3008L10.0848 32.1777L13.9745 32.1104L12.2587 31.2979ZM9.42078 32.0518C9.46262 32.0272 9.51001 32.0108 9.56238 32.0107C9.62748 32.0107 9.68639 32.0338 9.73425 32.0703L11.455 31.2119L8.14343 30.9316L9.42078 32.0518ZM12.621 31.1895L14.2753 31.9727C14.3168 31.9337 14.3693 31.9071 14.4286 31.8984V31.8945H14.4696L14.5262 31.8994C14.5683 31.908 14.6063 31.9272 14.6395 31.9521L15.8153 30.9297L12.621 31.1895ZM10.243 29.8662C10.1919 29.944 10.1071 29.998 10.0067 29.998C9.91957 29.998 9.84337 29.9573 9.79089 29.8955L8.22644 30.6846L11.788 30.9863C11.8085 30.9398 11.8412 30.9007 11.8817 30.8711C11.8756 30.7221 11.8678 30.542 11.8622 30.3994C11.7901 30.3654 11.7351 30.3041 11.7108 30.2266L10.243 29.8662ZM12.2557 30.2236C12.2331 30.2987 12.182 30.359 12.1141 30.3945C12.1189 30.5175 12.1243 30.6743 12.1307 30.8291C12.2019 30.8507 12.2606 30.898 12.2968 30.9619L15.7772 30.6787L14.3221 29.8281C14.3062 29.8367 14.2909 29.8471 14.2733 29.8525L14.1893 29.8652C14.1154 29.8652 14.0495 29.8357 13.9989 29.79L12.2557 30.2236Z" fill="#06BAD1" stroke="#06BAD1" stroke-width="0.0805838"/>
</svg>
