<svg width="24" height="23" viewBox="0 0 24 23" fill="none" xmlns="http://www.w3.org/2000/svg">
<path d="M24.0001 11.5C23.9977 10.8258 23.843 10.1609 23.5476 9.55482C23.2522 8.94877 22.8237 8.41728 22.2941 8.00004C23.0268 7.42246 23.5609 6.63058 23.8219 5.73488C24.083 4.83918 24.058 3.88433 23.7504 3.00353C23.4428 2.12273 22.8679 1.35991 22.1059 0.821492C21.344 0.283073 20.433 -0.00409694 19.5001 4.4165e-05H4.50007C3.5671 -0.00409694 2.65611 0.283073 1.89418 0.821492C1.13225 1.35991 0.557377 2.12273 0.249759 3.00353C-0.0578603 3.88433 -0.0828826 4.83918 0.178182 5.73488C0.439247 6.63058 0.973379 7.42246 1.70607 8.00004C1.17461 8.41562 0.744772 8.94676 0.449153 9.55319C0.153534 10.1596 -0.000102385 10.8254 -0.000102385 11.5C-0.000102385 12.1747 0.153534 12.8405 0.449153 13.4469C0.744772 14.0533 1.17461 14.5845 1.70607 15C0.973379 15.5776 0.439247 16.3695 0.178182 17.2652C-0.0828826 18.1609 -0.0578603 19.1158 0.249759 19.9966C0.557377 20.8774 1.13225 21.6402 1.89418 22.1786C2.65611 22.717 3.5671 23.0042 4.50007 23H19.5001C20.433 23.0042 21.344 22.717 22.1059 22.1786C22.8679 21.6402 23.4428 20.8774 23.7504 19.9966C24.058 19.1158 24.083 18.1609 23.8219 17.2652C23.5609 16.3695 23.0268 15.5776 22.2941 15C22.8237 14.5828 23.2522 14.0513 23.5476 13.4453C23.843 12.8392 23.9977 12.1743 24.0001 11.5ZM2.00007 4.50004C2.00007 3.837 2.26346 3.20112 2.7323 2.73228C3.20114 2.26344 3.83702 2.00004 4.50007 2.00004H5.00007V3.00004C5.00007 3.26526 5.10542 3.51961 5.29296 3.70715C5.4805 3.89469 5.73485 4.00004 6.00007 4.00004C6.26528 4.00004 6.51964 3.89469 6.70717 3.70715C6.89471 3.51961 7.00007 3.26526 7.00007 3.00004V2.00004H9.00007V3.00004C9.00007 3.26526 9.10542 3.51961 9.29296 3.70715C9.4805 3.89469 9.73485 4.00004 10.0001 4.00004C10.2653 4.00004 10.5196 3.89469 10.7072 3.70715C10.8947 3.51961 11.0001 3.26526 11.0001 3.00004V2.00004H19.5001C20.1631 2.00004 20.799 2.26344 21.2678 2.73228C21.7367 3.20112 22.0001 3.837 22.0001 4.50004C22.0001 5.16309 21.7367 5.79897 21.2678 6.26781C20.799 6.73665 20.1631 7.00004 19.5001 7.00004H4.50007C3.83702 7.00004 3.20114 6.73665 2.7323 6.26781C2.26346 5.79897 2.00007 5.16309 2.00007 4.50004ZM22.0001 18.5C22.0001 19.1631 21.7367 19.799 21.2678 20.2678C20.799 20.7367 20.1631 21 19.5001 21H4.50007C3.83702 21 3.20114 20.7367 2.7323 20.2678C2.26346 19.799 2.00007 19.1631 2.00007 18.5C2.00007 17.837 2.26346 17.2011 2.7323 16.7323C3.20114 16.2634 3.83702 16 4.50007 16H5.00007V17C5.00007 17.2653 5.10542 17.5196 5.29296 17.7072C5.4805 17.8947 5.73485 18 6.00007 18C6.26528 18 6.51964 17.8947 6.70717 17.7072C6.89471 17.5196 7.00007 17.2653 7.00007 17V16H9.00007V17C9.00007 17.2653 9.10542 17.5196 9.29296 17.7072C9.4805 17.8947 9.73485 18 10.0001 18C10.2653 18 10.5196 17.8947 10.7072 17.7072C10.8947 17.5196 11.0001 17.2653 11.0001 17V16H19.5001C20.1631 16 20.799 16.2634 21.2678 16.7323C21.7367 17.2011 22.0001 17.837 22.0001 18.5ZM4.50007 14C3.83702 14 3.20114 13.7367 2.7323 13.2678C2.26346 12.799 2.00007 12.1631 2.00007 11.5C2.00007 10.837 2.26346 10.2011 2.7323 9.73228C3.20114 9.26344 3.83702 9.00004 4.50007 9.00004H5.00007V10C5.00007 10.2653 5.10542 10.5196 5.29296 10.7072C5.4805 10.8947 5.73485 11 6.00007 11C6.26528 11 6.51964 10.8947 6.70717 10.7072C6.89471 10.5196 7.00007 10.2653 7.00007 10V9.00004H9.00007V10C9.00007 10.2653 9.10542 10.5196 9.29296 10.7072C9.4805 10.8947 9.73485 11 10.0001 11C10.2653 11 10.5196 10.8947 10.7072 10.7072C10.8947 10.5196 11.0001 10.2653 11.0001 10V9.00004H19.5001C20.1631 9.00004 20.799 9.26344 21.2678 9.73228C21.7367 10.2011 22.0001 10.837 22.0001 11.5C22.0001 12.1631 21.7367 12.799 21.2678 13.2678C20.799 13.7367 20.1631 14 19.5001 14H4.50007Z" fill="#646D7E"/>
</svg>
